<svg height="90" viewBox="0 0 264 90" width="264" xmlns="http://www.w3.org/2000/svg" xmlns:xlink="http://www.w3.org/1999/xlink"><mask id="a" fill="#fff"><path d="m.12855882.86717647h263.35438218v53.35925753h-263.35438218z" fill="#fff" fill-rule="evenodd"/></mask><mask id="b" fill="#fff"><path d="m0 89.1335294h263.482941v-88.25117646h-263.482941z" fill="#fff" fill-rule="evenodd"/></mask><g fill="none" fill-rule="evenodd"><g fill="#00549c"><path d="m235.451206 54.1630588c-19.424118 1.047353-34.425882-11.0029412-34.549633-27.54-.060661-14.9382353 12.480221-25.75588233 30.369045-25.75588233 11.187353 0 18.629117 3.93352941 18.629117 3.93352941s2.336471 1.04382353 3.317647.61588236c.859412-.43235295.859412-1.23088236.859412-1.23088236l.677647-2.88882353h6.822353v20.59235295h-7.682647c-.983823-4.9155882-6.024706-13.46205883-18.198529-13.52294118-12.170294-.06264706-18.381177 9.59029408-18.256765 18.56294118.182647 9.0397059 5.348823 18.6891176 18.876176 18.9979412 13.521177.3070588 17.761765-13.2802941 17.761765-13.2802941h9.406765c-1.906765 5.9047058-6.145588 20.3497058-28.032353 21.5161764zm-72.539118-41.6161764-7.810588 17.7652941h15.923824zm6.514412 39.7138235v-7.1329412h6.149118c1.352647 0 1.967647-.675 1.474411-1.7205882-.736764-1.4761765-2.95147-6.147353-2.95147-6.147353h-21.762353s-2.395588 4.9782353-2.764412 5.715c-.493235.7994118-.368823 2.1529412 1.044706 2.1529412h5.963824v7.1329412h-25.451471v-7.1329412h5.224412c1.599706 0 2.46-.5523529 3.196764-2.0285294.737647-1.4761765 18.93353-41.43441177 18.93353-41.43441177h14.877353l21.272647 41.55970587s.860294 1.9032353 3.563823 1.9032353c3.502059 0 5.71853.06 5.71853.06v7.1311765zm-101.9241176.0582353v-7.1911765h4.9808823c2.4573529-.0608823 3.6855882-1.5979412 3.75-3.2576471.06-.8611764.06-28.5838235.06-29.4441176 0-1.2952941-1.5370588-2.58264706-2.9505882-2.58264706h-5.3488236v-7.43911765h56.1882351v17.76705881l-7.438235.06s-.061765-5.5341176-.061765-6.7014706c-.062647-1.9667647-1.353529-3.74999997-4.179706-3.74999997-3.625588-.06264706-21.2691173.06352941-21.2691173.06352941v13.15411766s5.6541177.06 7.0685294 0c1.8423529-.0617647 2.5817649-1.3526471 2.5817649-3.2594118v-3.197647h7.315588v20.2261764h-7.315588v-4.1797058c0-1.0455883-.676765-2.5217648-2.4591178-2.5826471-1.1682353 0-7.1911765.0608823-7.1911765.0608823v15.0626471s20.4097063.06 22.9888233 0c3.321177-.0608823 4.303236-1.7814706 4.243236-3.5638235-.061765-1.4761765 0-8.3611765 0-8.3611765h7.43647v19.0579412zm-13.6455883-29.445s.0608824-7.0694118.0608824-8.8517647c-.0608824-2.2138236-1.4770589-4.17882356-3.9361765-4.17882356h-11.2482353s-.0626471 30.85852946 0 32.57911766c0 1.2908823 1.1664706 2.7052941 3.1967647 2.7052941h7.437353v7.1329412h-36.6997059v-7.1329412s6.0238235-.0608823 7.4373529-.0608823c1.722353.0608823 2.6452941-1.3535295 2.6452941-2.6444118v-32.57911766h-11.0055882c-2.39558824 0-3.99529412 1.59617646-4.05794118 3.80999996 0 2.0902942-.06 9.2205883-.06 9.2205883h-7.4982353v-20.46970591h61.34911768v20.46970591z" mask="url(#a)" transform="translate(0 .015882)"/><path d="m55.4012647 74.9211176c.3997059 0 .7958824-.0308823 1.1947059-.0882352.3961765-.0582353.7544118-.1685295 1.0694118-.3326471.3194117-.1614706.5797058-.3944118.7861764-.6944118.2047059-.302647.3105883-.6891176.3105883-1.1611764 0-.4270589-.0970589-.777353-.2885295-1.05-.1923529-.2717647-.4341176-.4888236-.7305882-.6529412-.2947059-.1597059-.6291176-.27-1.0041176-.3308824-.3758824-.0582353-.7394118-.0873529-1.0932353-.0873529h-2.5191177v4.397647zm-5.0611765-6.7420588h5.4388236c.7358823 0 1.4488235.0776471 2.1414706.2329412.6935294.1552941 1.3085294.4102941 1.8458823.7632353.5382353.3538235.9688235.8170588 1.2926471 1.3923529.3238235.5744118.4879411 1.2741177.4879411 2.0991177 0 1.1338235-.3220588 2.057647-.9617647 2.7732353-.6414706.7147059-1.515 1.1973529-2.6214706 1.4479412l4.1797059 6.9397058h-3.3591176l-3.6255883-6.6282353h-2.0320588v6.6282353h-2.7864706z"/><path d="m71.0043529 77.4630882c0-.3397058-.0467647-.6635294-.1447058-.9723529-.0935295-.3097059-.2444118-.5841177-.4517647-.8179412-.2064706-.2364706-.4685295-.4244117-.7835295-.5638235-.317647-.1394118-.6917647-.21-1.1170588-.21-.7941176 0-1.47.2391176-2.0214706.7182353-.5532353.4791176-.8602941 1.0941176-.9185294 1.8458823zm2.6541177 1.1947059v.3511765c0 .1191176-.0088235.2364706-.0229412.3547059h-8.0682353c.0308824.3829411.1288235.7323529.3 1.05.1685294.3167647.3926471.5894117.6714706.8179411.2814706.2294118.5982353.4085295.9520588.54.3547059.132353.7217647.1994118 1.1055883.1994118.6635294 0 1.2220588-.1217647 1.6791176-.3652941.4561765-.2426471.8338235-.5770588 1.1267647-1.0041177l1.7682353 1.4144118c-1.0455882 1.4135294-2.5623529 2.1211765-4.5529412 2.1211765-.8258823 0-1.5820588-.1288235-2.2764706-.387353-.692647-.2567647-1.292647-.6220588-1.8008823-1.0923529-.5082353-.4720588-.9052941-1.0517647-1.1929412-1.7355882-.287647-.6838236-.4305882-1.4629412-.4305882-2.3320589 0-.8541176.1429412-1.6314705.4305882-2.3311764.2876471-.6997059.6811765-1.2961765 1.182353-1.7911765.5002941-.4923529 1.0923529-.8770588 1.7788235-1.1488235.6855882-.2726471 1.425-.4085294 2.2208823-.4085294.7358824 0 1.4188236.1208823 2.0444118.3635294.6273529.242647 1.1664706.6052941 1.6252941 1.0835294.4561765.4791176.8144118 1.0755882 1.0711765 1.7911765.2585294.7147058.3882353 1.5494117.3882353 2.5094117z"/><path d="m83.7864706 76.1584412c-.2064706-.2947059-.5170588-.5408824-.9291177-.7411765-.4120588-.1976471-.8320588-.2982353-1.2591176-.2982353-.4861765 0-.9141177.1005882-1.2829412.2982353-.3688235.2002941-.675.4605882-.9167647.7861765-.242647.3238235-.4235294.6873529-.5408823 1.0941176-.1191177.405-.177353.8117647-.177353 1.2255883 0 .4129411.06.8197058.1861765 1.2264705.1252941.405.315.7702942.5638235 1.095.2514706.3238236.5629412.5858824.9405883.7835295.3758823.2002941.8135294.3 1.3147058.3.4120589 0 .8258824-.0829412 1.2388236-.2444118.4120588-.1623529.7429411-.3979412.992647-.7067647l1.6579412 1.68c-.4429412.4702941-1.0041176.8364706-1.6905882 1.0932353-.6838236.257647-1.425.3873529-2.2191177.3873529-.782647 0-1.5238235-.1261764-2.2217647-.3758823-.7032353-.2497059-1.3129412-.6185294-1.8352941-1.1047059-.5241177-.4879412-.9361765-1.0764706-1.2370588-1.7682353-.3035294-.6926471-.4535294-1.4797059-.4535294-2.3655882 0-.8532353.15-1.6270589.4535294-2.3197059.3008823-.6926471.7094117-1.2820588 1.2247059-1.7682353.5170588-.4861765 1.1170588-.8620588 1.802647-1.1267647.6847059-.2655883 1.4170588-.3988236 2.1997059-.3988236.78 0 1.5352941.1482353 2.2658823.4411765.7288236.2964706 1.3058824.7014706 1.7355883 1.215z"/><path d="m89.8629706 78.4798235c0 .4120589.0617647.8258824.1879412 1.2370589.1252941.4138235.3114706.7808823.5638235 1.1047058.2514706.3255883.5664706.5894118.9511765.7967647.3820588.2064706.8391176.3097059 1.367647.3097059.5329412 0 .99-.1032353 1.3720588-.3097059.3847059-.2073529.6997059-.4711764.9476471-.7967647.2523529-.3238235.4411765-.6908823.5655882-1.1047058.1261765-.4111765.1879412-.825.1879412-1.2370589 0-.4120588-.0617647-.8223529-.1879412-1.2273529-.1244117-.405-.3132353-.7702941-.5655882-1.0941177-.2479412-.3238235-.5629412-.5858823-.9476471-.7844117-.3820588-.1994118-.8391176-.2991177-1.3720588-.2991177-.5285294 0-.9855882.0997059-1.367647.2991177-.3847059.1985294-.6997059.4605882-.9511765.7844117-.2523529.3238236-.4385294.6891177-.5638235 1.0941177-.1261765.405-.1879412.8152941-.1879412 1.2273529m-2.6955882 0c0-.8391176.15-1.6023529.4517647-2.2870588.3035294-.6873529.7120588-1.2714706 1.2273529-1.7576471.5152941-.4861764 1.1267647-.8620588 1.8335294-1.1267647.7085294-.2655882 1.4594118-.3979411 2.2535294-.3979411.7967647 0 1.5476471.1323529 2.2561765.3979411.7067647.2647059 1.3182353.6405883 1.8335294 1.1267647.5152941.4861765.9255882 1.0702942 1.2255882 1.7576471.3052942.6847059.4552942 1.4479412.4552942 2.2870588 0 .8391177-.15 1.6041177-.4552942 2.2985294-.3.6935295-.7102941 1.2855883-1.2255882 1.7788236-.5152941.495-1.1267647.8805882-1.8335294 1.1602941-.7085294.2805882-1.4594118.42-2.2561765.42-.7941176 0-1.545-.1394118-2.2535294-.42-.7067647-.2797059-1.3182353-.6652941-1.8335294-1.1602941-.5152941-.4932353-.9238235-1.0852941-1.2273529-1.7788236-.3017647-.6944117-.4517647-1.4594117-.4517647-2.2985294"/><path d="m100.978588 73.2202059h2.543824v1.7664706h.043235c.294706-.6167647.705882-1.1188236 1.237059-1.5026471.531176-.3829412 1.149706-.5744118 1.855588-.5744118.104118 0 .214412.0052942.332647.012353.117353.0052941.222353.0238235.308824.0538235v2.4317647c-.175589-.045-.327353-.0741176-.451765-.0882353-.125294-.0141176-.249706-.0220588-.365294-.0220588-.604412 0-1.090588.1102941-1.457647.3317647-.370588.2205882-.656471.4861765-.863824.795-.20647.3079412-.344117.627353-.418235.9511765-.074118.3220588-.110294.5805882-.110294.7720588v5.6797059h-2.654118z"/><path d="m111.013588 78.4798235c0 .4120589.061765.8258824.187941 1.2370589.125295.4138235.311471.7808823.563824 1.1047058.249706.3255883.566471.5894118.951176.7967647.380295.2064706.830295.3097059 1.347353.3097059.486177 0 .920294-.0997059 1.305-.3.382059-.197647.709412-.4597059.983824-.7835294.27-.3238235.477353-.69.616765-1.095.139411-.4058823.21-.812647.21-1.2264706 0-.4138235-.070589-.8258823-.21-1.2379412-.139412-.4111764-.346765-.78-.616765-1.1038235-.274412-.3247059-.601765-.5911765-.983824-.7967647-.384706-.2047059-.818823-.3097059-1.305-.3097059-.517058 0-.967058.0997059-1.347353.2991177-.384705.1985294-.70147.4605882-.951176.7844117-.252353.3238236-.438529.6891177-.563824 1.0941177-.126176.405-.187941.8152941-.187941 1.2273529zm8.730883 5.3479412h-2.521765v-1.5908823h-.043235c-.368824.6185294-.880589 1.0905882-1.535295 1.4144117-.654705.3247059-1.36147.4861765-2.112352.4861765-.809118 0-1.534412-.1517647-2.175-.4517647-.641471-.3026471-1.185883-.7076471-1.635883-1.2176471-.45-.5073529-.794117-1.1047059-1.039412-1.7894117-.242647-.6855883-.365294-1.4179412-.365294-2.1988236 0-.782647.126177-1.5097059.377647-2.1882353.249706-.677647.60353-1.2670588 1.061471-1.7682353.455294-.5020588.999706-.8947058 1.634118-1.1823529.634411-.2876471 1.327058-.4305882 2.077941-.4305882.486176 0 .920294.0529411 1.303235.165.382059.1102941.718235.2461764 1.004118.4085294.290294.1632353.53647.3397059.741176.5320588.207353.1914706.375883.3741176.508235.5497059h.066177v-7.4461765h2.654118z"/><path d="m122.837647 83.8270588h2.654118v-10.6067647h-2.654118zm-.375882-14.2102941c0-.4279412.157059-.7994118.473823-1.1170588.316765-.3167647.719118-.4738235 1.204412-.4738235.487941 0 .896471.15 1.227353.4535294.332647.3017647.499412.6802941.499412 1.1373529 0 .4561765-.166765.8373529-.499412 1.1373529-.330882.3035295-.739412.4552942-1.227353.4552942-.485294 0-.887647-.1605883-1.204412-.4764706-.316764-.3167647-.473823-.6891177-.473823-1.1161765z" mask="url(#b)"/><path d="m128.650324 73.2202059h2.519117v1.7011765h.043235c.236471-.5311765.646765-.9979412 1.227353-1.4047059.580589-.4032353 1.269706-.6070589 2.066471-.6070589.692647 0 1.285588.1208824 1.779706.3644118.493235.2426471.9.5647059 1.215.9626471.317647.3970588.549706.8532353.696176 1.3702941.146471.5152941.220589 1.0464706.220589 1.592647v6.627353h-2.652353v-5.8782353c0-.3079412-.022059-.6317647-.065294-.9714706-.045-.3397059-.139412-.645-.287648-.9167647-.14647-.2726471-.349411-.4985294-.606176-.6758824-.258529-.1755882-.601765-.2655882-1.028824-.2655882-.427941 0-.795.0864706-1.104705.255-.310589.1694118-.563824.3882353-.762353.6538235-.201177.2629412-.351177.5682353-.452647.9167647-.104118.3441177-.155295.6961765-.155295 1.047353v5.835h-2.652352z" mask="url(#b)"/><path d="m146.485235 75.0744706c-.486176 0-.916764.09-1.292647.2655882-.375882.177353-.692647.4147059-.949412.7164706-.260294.3-.458823.6564706-.598235 1.0685294-.139412.4102941-.21.8514706-.21 1.32 0 .4279412.070588.8382353.21 1.2344118s.337941.752647.598235 1.0685294c.256765.315.57353.57.949412.7614706.375883.1897059.797647.2841176 1.272353.2841176.48353 0 .922941-.0908823 1.312941-.2735294.389118-.1844117.721765-.4314706.994412-.7394117.271765-.3088236.484412-.6635295.630882-1.0667647.146471-.405.220589-.8276471.220589-1.2688236 0-.4544117-.074118-.887647-.220589-1.2988235-.14647-.4102941-.359117-.7702941-.630882-1.0791177-.272647-.3088235-.6-.5497058-.982059-.7270588-.382941-.1755882-.818823-.2655882-1.305-.2655882zm5.657647-1.8547059v9.6582353c0 .9582353-.117353 1.8229412-.352941 2.5967647-.23647.7738235-.6 1.4285294-1.095 1.9667647-.494117.537353-1.116176.9529412-1.867941 1.2494118-.749118.2929412-1.642059.4429412-2.672647.4429412-.427059 0-.880588-.0379412-1.359706-.1120589-.479118-.0741176-.949412-.1844117-1.413529-.3308823-.465-.1464706-.909706-.3326471-1.336765-.5514706-.429706-.222353-.811765-.4729412-1.151471-.7535294l1.525589-2.0541177c.515294.4861765 1.099411.8567647 1.745294 1.1152941.649411.2567648 1.305.387353 1.968529.387353.631765 0 1.166471-.0944118 1.602353-.2770588.432353-.1861765.782647-.4411765 1.037647-.7658824.25853-.3255882.442941-.7111765.553235-1.1541176.110295-.4447059.165-.9326471.165-1.4647059v-.7755883h-.045c-.380294.522353-.871764.9202942-1.468235 1.1938236-.595588.2761764-1.262647.4138235-2.000294.4138235-.796765 0-1.516765-.1482353-2.164412-.4429412-.650294-.2929411-1.2-.692647-1.647353-1.1920588-.45-.5020588-.800294-1.0879412-1.05-1.7585294-.25147-.6697059-.375882-1.38-.375882-2.1317647 0-.7667647.120882-1.4885294.365294-2.1661765.243529-.6767647.589412-1.2661765 1.035882-1.7682353.45-.5011764.996177-.8973529 1.637647-1.1938235.642353-.2929412 1.359706-.4411765 2.155589-.4411765.75 0 1.45147.1552941 2.099117.4632353.647647.3088235 1.162942.7879412 1.545883 1.437353h.045v-1.5908824z" mask="url(#b)"/><path d="m164.850882 70.611h-4.79647v-2.4317647h12.377647v2.4317647h-4.796471v13.2167647h-2.784706z" mask="url(#b)"/><path d="m173.336647 78.4798235c0 .4120589.063529.8258824.189706 1.2370589.123529.4138235.313235.7808823.563823 1.1047058.249706.3255883.566471.5894118.949412.7967647.383824.2064706.840883.3097059 1.369412.3097059.531176 0 .988235-.1032353 1.372059-.3097059.382941-.2073529.697941-.4711764.949412-.7967647.249705-.3238235.437647-.6908823.563823-1.1047058.124412-.4111765.187941-.825.187941-1.2370589 0-.4120588-.063529-.8223529-.187941-1.2273529-.126176-.405-.314118-.7702941-.563823-1.0941177-.251471-.3238235-.566471-.5858823-.949412-.7844117-.383824-.1994118-.840883-.2991177-1.372059-.2991177-.528529 0-.985588.0997059-1.369412.2991177-.382941.1985294-.699706.4605882-.949412.7844117-.250588.3238236-.440294.6891177-.563823 1.0941177-.126177.405-.189706.8152941-.189706 1.2273529m-2.695588 0c0-.8391176.151765-1.6023529.453529-2.2870588.30353-.6873529.712059-1.2714706 1.227353-1.7576471.515294-.4861764 1.126765-.8620588 1.835294-1.1267647.705883-.2655882 1.457647-.3979411 2.251765-.3979411.796765 0 1.547647.1323529 2.256176.3979411.706765.2647059 1.316471.6405883 1.83353 1.1267647.515294.4861765.925588 1.0702942 1.225588 1.7576471.305294.6847059.454412 1.4479412.454412 2.2870588 0 .8391177-.149118 1.6041177-.454412 2.2985294-.3.6935295-.710294 1.2855883-1.225588 1.7788236-.517059.495-1.126765.8805882-1.83353 1.1602941-.708529.2805882-1.459411.42-2.256176.42-.794118 0-1.545882-.1394118-2.251765-.42-.708529-.2797059-1.32-.6652941-1.835294-1.1602941-.515294-.4932353-.923823-1.0852941-1.227353-1.7788236-.301764-.6944117-.453529-1.4594117-.453529-2.2985294" mask="url(#b)"/><path d="m197.139529 72.9099706c.694412 0 1.287353.1208823 1.780589.3635294.492353.2426471.897353.5655882 1.215.9635294.316764.3961765.547941.8532353.697941 1.3702941.14647.5152941.218823 1.0455883.218823 1.5917647v6.6282353h-2.652353v-5.8782353c0-.3088235-.021176-.632647-.065294-.9723529-.043235-.3388235-.140294-.6441177-.286764-.9167647-.148236-.2717647-.351177-.4976471-.607942-.675-.258529-.1764706-.6-.2655882-1.027058-.2655882-.415589 0-.766765.0891176-1.063236.2655882-.292941.1773529-.538235.405-.727941.6855882-.192353.2788236-.331765.5929412-.42.9379412-.09.3476471-.132353.6891176-.132353 1.0288235v5.79h-2.652353v-6.4094117c0-.6617647-.158823-1.2114706-.473823-1.6455883-.319412-.4341176-.815294-.6529411-1.494706-.6529411-.396177 0-.742941.0864705-1.037647.255-.296471.1685294-.533824.3873529-.716471.6529411-.186176.2638236-.325588.5691177-.422647.9167647-.094412.345-.142941.6961765-.142941 1.0482353v5.835h-2.652353v-10.6067647h2.52v1.7002941h.045c.116471-.2647058.275294-.5152941.475588-.7508823.197647-.2364706.434118-.45.706765-.6414706.271765-.1914706.585882-.3432353.938823-.4535294.352942-.1111765.744706-.165 1.171765-.165.825883 0 1.509706.1844118 2.054118.5532353.544412.3670588.965294.8532353 1.26 1.457647.352941-.6494117.825882-1.1444117 1.414412-1.4920588.589411-.345 1.282941-.5188235 2.077058-.5188235" mask="url(#b)"/><path d="m206.0475 78.4798235c0 .4120589.061765.8258824.189706 1.2370589.122647.4138235.31147.7808823.562059 1.1047058.249706.3255883.56647.5894118.949411.7967647.382059.2064706.839118.3097059 1.369412.3097059.532941 0 .988236-.1032353 1.372059-.3097059.382941-.2073529.699706-.4711764.949412-.7967647.25147-.3238235.437647-.6908823.563823-1.1047058.126177-.4111765.187942-.825.187942-1.2370589 0-.4120588-.061765-.8223529-.187942-1.2273529-.126176-.405-.312353-.7702941-.563823-1.0941177-.249706-.3238235-.566471-.5858823-.949412-.7844117-.383823-.1994118-.839118-.2991177-1.372059-.2991177-.530294 0-.987353.0997059-1.369412.2991177-.382941.1985294-.699705.4605882-.949411.7844117-.250589.3238236-.439412.6891177-.562059 1.0941177-.127941.405-.189706.8152941-.189706 1.2273529m-2.695588 0c0-.8391176.15-1.6023529.451764-2.2870588.301765-.6873529.712059-1.2714706 1.227353-1.7576471.515295-.4861764 1.125-.8620588 1.835295-1.1267647.705-.2655882 1.457647-.3979411 2.251764-.3979411.796765 0 1.549412.1323529 2.256177.3979411.706764.2647059 1.318235.6405883 1.833529 1.1267647.517059.4861765.925588 1.0702942 1.227353 1.7576471.301765.6847059.451765 1.4479412.451765 2.2870588 0 .8391177-.15 1.6041177-.451765 2.2985294-.301765.6935295-.710294 1.2855883-1.227353 1.7788236-.515294.495-1.126765.8805882-1.833529 1.1602941-.706765.2805882-1.459412.42-2.256177.42-.794117 0-1.546764-.1394118-2.251764-.42-.710295-.2797059-1.32-.6652941-1.835295-1.1602941-.515294-.4932353-.925588-1.0852941-1.227353-1.7788236-.301764-.6944117-.451764-1.4594117-.451764-2.2985294" mask="url(#b)"/><path d="m217.164794 73.2202059h2.540294v1.7664706h.045c.294706-.6167647.707647-1.1188236 1.237059-1.5026471.531177-.3829412 1.149706-.5744118 1.857353-.5744118.102353 0 .212647.0052942.330882.012353.117353.0052941.220589.0238235.308824.0538235v2.4317647c-.177353-.045-.327353-.0741176-.451765-.0882353-.127059-.0141176-.247941-.0220588-.365294-.0220588-.604412 0-1.090588.1102941-1.459412.3317647-.367059.2205882-.654706.4861765-.860294.795-.20647.3079412-.347647.627353-.42.9511765-.075882.3220588-.112059.5805882-.112059.7720588v5.6797059h-2.650588z" mask="url(#b)"/><path d="m225.474706 73.2202059h2.540294v1.7664706h.045c.294706-.6167647.707647-1.1188236 1.237059-1.5026471.531176-.3829412 1.149706-.5744118 1.858235-.5744118.101471 0 .211765.0052942.330882.012353.116471.0052941.220589.0238235.307942.0538235v2.4317647c-.175589-.045-.327353-.0741176-.451765-.0882353-.125294-.0141176-.246177-.0220588-.365294-.0220588-.604412 0-1.090588.1102941-1.457647.3317647-.368824.2205882-.656471.4861765-.862059.795-.208235.3079412-.347647.627353-.42.9511765-.074118.3220588-.112059.5805882-.112059.7720588v5.6797059h-2.650588z" mask="url(#b)"/><path d="m235.397735 78.4798235c0 .4120589.06353.8258824.187941 1.2370589.124412.4138235.311471.7808823.563824 1.1047058.249706.3255883.566471.5894118.949412.7967647.383823.2064706.840882.3097059 1.371176.3097059.529412 0 .986471-.1032353 1.370294-.3097059.381177-.2073529.701471-.4711764.949412-.7967647.251471-.3238235.437647-.6908823.565588-1.1047058.124412-.4111765.186177-.825.186177-1.2370589 0-.4120588-.061765-.8223529-.186177-1.2273529-.127941-.405-.314117-.7702941-.565588-1.0941177-.247941-.3238235-.568235-.5858823-.949412-.7844117-.383823-.1994118-.840882-.2991177-1.370294-.2991177-.530294 0-.987353.0997059-1.371176.2991177-.382941.1985294-.699706.4605882-.949412.7844117-.252353.3238236-.439412.6891177-.563824 1.0941177-.124411.405-.187941.8152941-.187941 1.2273529m-2.695588 0c0-.8391176.15-1.6023529.451765-2.2870588.303529-.6873529.710294-1.2714706 1.227353-1.7576471.517059-.4861764 1.126764-.8620588 1.835294-1.1267647.706765-.2655882 1.457647-.3979411 2.253529-.3979411.795 0 1.547647.1323529 2.254412.3979411.706765.2647059 1.316471.6405883 1.833529 1.1267647.517059.4861765.927353 1.0702942 1.227353 1.7576471.301765.6847059.45353 1.4479412.45353 2.2870588 0 .8391177-.151765 1.6041177-.45353 2.2985294-.3.6935295-.710294 1.2855883-1.227353 1.7788236-.517058.495-1.126764.8805882-1.833529 1.1602941-.706765.2805882-1.459412.42-2.254412.42-.795882 0-1.546764-.1394118-2.253529-.42-.70853-.2797059-1.318235-.6652941-1.835294-1.1602941-.517059-.4932353-.923824-1.0852941-1.227353-1.7788236-.301765-.6944117-.451765-1.4594117-.451765-2.2985294" mask="url(#b)"/><path d="m244.922735 73.2202059h2.872941l2.211177 7.6014706h.043235l2.278236-7.6014706h2.827941l2.298529 7.6014706h.043235l2.254412-7.6014706h2.76353l-3.670589 10.6067647h-2.694706l-2.409705-7.4241177h-.043236l-2.386764 7.4241177h-2.696471z" mask="url(#b)"/></g><g fill="#d03238"><path d="m34.1109706 67.5986471c-4.605 0-8.3532353 3.7464705-8.3532353 8.355 0 4.605 3.7482353 8.3532353 8.3532353 8.3532353 4.6085294 0 8.355-3.7482353 8.355-8.3532353 0-4.6085295-3.7464706-8.355-8.355-8.355" mask="url(#b)"/><path d="m22.7558824 68.3414118c-1.0491177-.4755883-2.2111765-.7429412-3.4367648-.7429412-4.6058823 0-8.3532352 3.7482353-8.3532352 8.355 0 4.605 3.7473529 8.3532353 8.3532352 8.3532353 1.2255883 0 2.3876471-.267353 3.4367648-.7411765-1.4629412-2.1785294-2.3197059-4.7982353-2.3197059-7.6120588 0-2.817353.8567647-5.4352941 2.3197059-7.6120588" mask="url(#b)"/><path d="m8.50120588 67.6020882c-.04852941-.0017647-.09794117-.0035294-.14647059-.0035294-4.60852941 0-8.355 3.7464706-8.355 8.355 0 4.605 3.74647059 8.3532353 8.355 8.3532353.04852942 0 .09794118-.0035294.14647059-.0035294-1.78941176-2.3126471-2.85617647-5.2085294-2.85617647-8.3497059 0-3.1438235 1.06676471-6.0388235 2.85617647-8.3514706" mask="url(#b)"/></g><g fill="#002e6c"><path d="m235.451206 54.1789412c-19.424118 1.0473529-34.425882-11.0029412-34.549633-27.54-.060661-14.9382353 12.480221-25.75588238 30.369045-25.75588238 11.187353 0 18.629117 3.93352942 18.629117 3.93352942s2.336471 1.04382352 3.317647.61588235c.859412-.43235294.859412-1.23088235.859412-1.23088235l.677647-2.88882353h6.822353v20.59235289h-7.682647c-.983823-4.9155882-6.024706-13.46205878-18.198529-13.52294113-12.170294-.06264706-18.381177 9.59029413-18.256765 18.56294113.182647 9.0397059 5.348823 18.6891177 18.876176 18.9979412 13.521177.3070588 17.761765-13.2802941 17.761765-13.2802941h9.406765c-1.906765 5.9047059-6.145588 20.3497059-28.032353 21.5161765zm-72.539118-41.6161765-7.810588 17.7652941h15.923824zm6.514412 39.7138235v-7.1329411h6.149118c1.352647 0 1.967647-.675 1.474411-1.7205883-.736764-1.4761764-2.95147-6.1473529-2.95147-6.1473529h-21.762353s-2.395588 4.9782353-2.764412 5.715c-.493235.7994117-.368823 2.1529412 1.044706 2.1529412h5.963824v7.1329411h-25.451471v-7.1329411h5.224412c1.599706 0 2.46-.552353 3.196764-2.0285295.737647-1.4761764 18.93353-41.43441172 18.93353-41.43441172h14.877353l21.272647 41.55970592s.860294 1.9032353 3.563823 1.9032353c3.502059 0 5.71853.06 5.71853.06v7.1311764zm-101.9241176.0582353v-7.1911764h4.9808823c2.4573529-.0608824 3.6855882-1.5979412 3.75-3.2576471.06-.8611765.06-28.5838235.06-29.4441176 0-1.2952942-1.5370588-2.58264711-2.9505882-2.58264711h-5.3488236v-7.43911764h56.1882351v17.76705885l-7.438235.06s-.061765-5.5341177-.061765-6.7014706c-.062647-1.9667647-1.353529-3.75000002-4.179706-3.75000002-3.625588-.06264706-21.2691173.06352941-21.2691173.06352941v13.15411761s5.6541177.06 7.0685294 0c1.8423529-.0617647 2.5817649-1.352647 2.5817649-3.2594117v-3.1976471h7.315588v20.2261765h-7.315588v-4.1797059c0-1.0455882-.676765-2.5217647-2.4591178-2.5826471-1.1682353 0-7.1911765.0608824-7.1911765.0608824v15.0626471s20.4097063.06 22.9888233 0c3.321177-.0608824 4.303236-1.7814706 4.243236-3.5638236-.061765-1.4761764 0-8.3611764 0-8.3611764h7.43647v19.0579411zm-13.6455883-29.445s.0608824-7.0694117.0608824-8.8517647c-.0608824-2.2138235-1.4770589-4.17882351-3.9361765-4.17882351h-11.2482353s-.0626471 30.85852941 0 32.57911761c0 1.2908824 1.1664706 2.7052942 3.1967647 2.7052942h7.437353v7.1329411h-36.6997059v-7.1329411s6.0238235-.0608824 7.4373529-.0608824c1.722353.0608824 2.6452941-1.3535294 2.6452941-2.6444118v-32.57911761h-11.0055882c-2.39558824 0-3.99529412 1.59617651-4.05794118 3.81000001 0 2.0902941-.06 9.2205882-.06 9.2205882h-7.4982353v-20.46970585h61.34911768v20.46970585z" mask="url(#b)"/><path d="m55.4012647 74.9211176c.3997059 0 .7958824-.0308823 1.1947059-.0882352.3961765-.0582353.7544118-.1685295 1.0694118-.3326471.3194117-.1614706.5797058-.3944118.7861764-.6944118.2047059-.302647.3105883-.6891176.3105883-1.1611764 0-.4270589-.0970589-.777353-.2885295-1.05-.1923529-.2717647-.4341176-.4888236-.7305882-.6529412-.2947059-.1597059-.6291176-.27-1.0041176-.3308824-.3758824-.0582353-.7394118-.0873529-1.0932353-.0873529h-2.5191177v4.397647zm-5.0611765-6.7420588h5.4388236c.7358823 0 1.4488235.0776471 2.1414706.2329412.6935294.1552941 1.3085294.4102941 1.8458823.7632353.5382353.3538235.9688235.8170588 1.2926471 1.3923529.3238235.5744118.4879411 1.2741177.4879411 2.0991177 0 1.1338235-.3220588 2.057647-.9617647 2.7732353-.6414706.7147059-1.515 1.1973529-2.6214706 1.4479412l4.1797059 6.9397058h-3.3591176l-3.6255883-6.6282353h-2.0320588v6.6282353h-2.7864706z" mask="url(#b)"/><path d="m71.0043529 77.4630882c0-.3397058-.0467647-.6635294-.1447058-.9723529-.0935295-.3097059-.2444118-.5841177-.4517647-.8179412-.2064706-.2364706-.4685295-.4244117-.7835295-.5638235-.317647-.1394118-.6917647-.21-1.1170588-.21-.7941176 0-1.47.2391176-2.0214706.7182353-.5532353.4791176-.8602941 1.0941176-.9185294 1.8458823zm2.6541177 1.1947059v.3511765c0 .1191176-.0088235.2364706-.0229412.3547059h-8.0682353c.0308824.3829411.1288235.7323529.3 1.05.1685294.3167647.3926471.5894117.6714706.8179411.2814706.2294118.5982353.4085295.9520588.54.3547059.132353.7217647.1994118 1.1055883.1994118.6635294 0 1.2220588-.1217647 1.6791176-.3652941.4561765-.2426471.8338235-.5770588 1.1267647-1.0041177l1.7682353 1.4144118c-1.0455882 1.4135294-2.5623529 2.1211765-4.5529412 2.1211765-.8258823 0-1.5820588-.1288235-2.2764706-.387353-.692647-.2567647-1.292647-.6220588-1.8008823-1.0923529-.5082353-.4720588-.9052941-1.0517647-1.1929412-1.7355882-.287647-.6838236-.4305882-1.4629412-.4305882-2.3320589 0-.8541176.1429412-1.6314705.4305882-2.3311764.2876471-.6997059.6811765-1.2961765 1.182353-1.7911765.5002941-.4923529 1.0923529-.8770588 1.7788235-1.1488235.6855882-.2726471 1.425-.4085294 2.2208823-.4085294.7358824 0 1.4188236.1208823 2.0444118.3635294.6273529.242647 1.1664706.6052941 1.6252941 1.0835294.4561765.4791176.8144118 1.0755882 1.0711765 1.7911765.2585294.7147058.3882353 1.5494117.3882353 2.5094117z" mask="url(#b)"/><path d="m83.7864706 76.1584412c-.2064706-.2947059-.5170588-.5408824-.9291177-.7411765-.4120588-.1976471-.8320588-.2982353-1.2591176-.2982353-.4861765 0-.9141177.1005882-1.2829412.2982353-.3688235.2002941-.675.4605882-.9167647.7861765-.242647.3238235-.4235294.6873529-.5408823 1.0941176-.1191177.405-.177353.8117647-.177353 1.2255883 0 .4129411.06.8197058.1861765 1.2264705.1252941.405.315.7702942.5638235 1.095.2514706.3238236.5629412.5858824.9405883.7835295.3758823.2002941.8135294.3 1.3147058.3.4120589 0 .8258824-.0829412 1.2388236-.2444118.4120588-.1623529.7429411-.3979412.992647-.7067647l1.6579412 1.68c-.4429412.4702941-1.0041176.8364706-1.6905882 1.0932353-.6838236.257647-1.425.3873529-2.2191177.3873529-.782647 0-1.5238235-.1261764-2.2217647-.3758823-.7032353-.2497059-1.3129412-.6185294-1.8352941-1.1047059-.5241177-.4879412-.9361765-1.0764706-1.2370588-1.7682353-.3035294-.6926471-.4535294-1.4797059-.4535294-2.3655882 0-.8532353.15-1.6270589.4535294-2.3197059.3008823-.6926471.7094117-1.2820588 1.2247059-1.7682353.5170588-.4861765 1.1170588-.8620588 1.802647-1.1267647.6847059-.2655883 1.4170588-.3988236 2.1997059-.3988236.78 0 1.5352941.1482353 2.2658823.4411765.7288236.2964706 1.3058824.7014706 1.7355883 1.215z" mask="url(#b)"/><path d="m89.8629706 78.4798235c0 .4120589.0617647.8258824.1879412 1.2370589.1252941.4138235.3114706.7808823.5638235 1.1047058.2514706.3255883.5664706.5894118.9511765.7967647.3820588.2064706.8391176.3097059 1.367647.3097059.5329412 0 .99-.1032353 1.3720588-.3097059.3847059-.2073529.6997059-.4711764.9476471-.7967647.2523529-.3238235.4411765-.6908823.5655882-1.1047058.1261765-.4111765.1879412-.825.1879412-1.2370589 0-.4120588-.0617647-.8223529-.1879412-1.2273529-.1244117-.405-.3132353-.7702941-.5655882-1.0941177-.2479412-.3238235-.5629412-.5858823-.9476471-.7844117-.3820588-.1994118-.8391176-.2991177-1.3720588-.2991177-.5285294 0-.9855882.0997059-1.367647.2991177-.3847059.1985294-.6997059.4605882-.9511765.7844117-.2523529.3238236-.4385294.6891177-.5638235 1.0941177-.1261765.405-.1879412.8152941-.1879412 1.2273529m-2.6955882 0c0-.8391176.15-1.6023529.4517647-2.2870588.3035294-.6873529.7120588-1.2714706 1.2273529-1.7576471.5152941-.4861764 1.1267647-.8620588 1.8335294-1.1267647.7085294-.2655882 1.4594118-.3979411 2.2535294-.3979411.7967647 0 1.5476471.1323529 2.2561765.3979411.7067647.2647059 1.3182353.6405883 1.8335294 1.1267647.5152941.4861765.9255882 1.0702942 1.2255882 1.7576471.3052942.6847059.4552942 1.4479412.4552942 2.2870588 0 .8391177-.15 1.6041177-.4552942 2.2985294-.3.6935295-.7102941 1.2855883-1.2255882 1.7788236-.5152941.495-1.1267647.8805882-1.8335294 1.1602941-.7085294.2805882-1.4594118.42-2.2561765.42-.7941176 0-1.545-.1394118-2.2535294-.42-.7067647-.2797059-1.3182353-.6652941-1.8335294-1.1602941-.5152941-.4932353-.9238235-1.0852941-1.2273529-1.7788236-.3017647-.6944117-.4517647-1.4594117-.4517647-2.2985294" mask="url(#b)"/><path d="m100.978588 73.2202059h2.543824v1.7664706h.043235c.294706-.6167647.705882-1.1188236 1.237059-1.5026471.531176-.3829412 1.149706-.5744118 1.855588-.5744118.104118 0 .214412.0052942.332647.012353.117353.0052941.222353.0238235.308824.0538235v2.4317647c-.175589-.045-.327353-.0741176-.451765-.0882353-.125294-.0141176-.249706-.0220588-.365294-.0220588-.604412 0-1.090588.1102941-1.457647.3317647-.370588.2205882-.656471.4861765-.863824.795-.20647.3079412-.344117.627353-.418235.9511765-.074118.3220588-.110294.5805882-.110294.7720588v5.6797059h-2.654118z" mask="url(#b)"/><path d="m111.013588 78.4798235c0 .4120589.061765.8258824.187941 1.2370589.125295.4138235.311471.7808823.563824 1.1047058.249706.3255883.566471.5894118.951176.7967647.380295.2064706.830295.3097059 1.347353.3097059.486177 0 .920294-.0997059 1.305-.3.382059-.197647.709412-.4597059.983824-.7835294.27-.3238235.477353-.69.616765-1.095.139411-.4058823.21-.812647.21-1.2264706 0-.4138235-.070589-.8258823-.21-1.2379412-.139412-.4111764-.346765-.78-.616765-1.1038235-.274412-.3247059-.601765-.5911765-.983824-.7967647-.384706-.2047059-.818823-.3097059-1.305-.3097059-.517058 0-.967058.0997059-1.347353.2991177-.384705.1985294-.70147.4605882-.951176.7844117-.252353.3238236-.438529.6891177-.563824 1.0941177-.126176.405-.187941.8152941-.187941 1.2273529zm8.730883 5.3479412h-2.521765v-1.5908823h-.043235c-.368824.6185294-.880589 1.0905882-1.535295 1.4144117-.654705.3247059-1.36147.4861765-2.112352.4861765-.809118 0-1.534412-.1517647-2.175-.4517647-.641471-.3026471-1.185883-.7076471-1.635883-1.2176471-.45-.5073529-.794117-1.1047059-1.039412-1.7894117-.242647-.6855883-.365294-1.4179412-.365294-2.1988236 0-.782647.126177-1.5097059.377647-2.1882353.249706-.677647.60353-1.2670588 1.061471-1.7682353.455294-.5020588.999706-.8947058 1.634118-1.1823529.634411-.2876471 1.327058-.4305882 2.077941-.4305882.486176 0 .920294.0529411 1.303235.165.382059.1102941.718235.2461764 1.004118.4085294.290294.1632353.53647.3397059.741176.5320588.207353.1914706.375883.3741176.508235.5497059h.066177v-7.4461765h2.654118z" mask="url(#b)"/><path d="m122.837647 83.8270588h2.654118v-10.6067647h-2.654118zm-.375882-14.2102941c0-.4279412.157059-.7994118.473823-1.1170588.316765-.3167647.719118-.4738235 1.204412-.4738235.487941 0 .896471.15 1.227353.4535294.332647.3017647.499412.6802941.499412 1.1373529 0 .4561765-.166765.8373529-.499412 1.1373529-.330882.3035295-.739412.4552942-1.227353.4552942-.485294 0-.887647-.1605883-1.204412-.4764706-.316764-.3167647-.473823-.6891177-.473823-1.1161765z" mask="url(#b)"/><path d="m128.650324 73.2202059h2.519117v1.7011765h.043235c.236471-.5311765.646765-.9979412 1.227353-1.4047059.580589-.4032353 1.269706-.6070589 2.066471-.6070589.692647 0 1.285588.1208824 1.779706.3644118.493235.2426471.9.5647059 1.215.9626471.317647.3970588.549706.8532353.696176 1.3702941.146471.5152941.220589 1.0464706.220589 1.592647v6.627353h-2.652353v-5.8782353c0-.3079412-.022059-.6317647-.065294-.9714706-.045-.3397059-.139412-.645-.287648-.9167647-.14647-.2726471-.349411-.4985294-.606176-.6758824-.258529-.1755882-.601765-.2655882-1.028824-.2655882-.427941 0-.795.0864706-1.104705.255-.310589.1694118-.563824.3882353-.762353.6538235-.201177.2629412-.351177.5682353-.452647.9167647-.104118.3441177-.155295.6961765-.155295 1.047353v5.835h-2.652352z" mask="url(#b)"/><path d="m146.485235 75.0744706c-.486176 0-.916764.09-1.292647.2655882-.375882.177353-.692647.4147059-.949412.7164706-.260294.3-.458823.6564706-.598235 1.0685294-.139412.4102941-.21.8514706-.21 1.32 0 .4279412.070588.8382353.21 1.2344118s.337941.752647.598235 1.0685294c.256765.315.57353.57.949412.7614706.375883.1897059.797647.2841176 1.272353.2841176.48353 0 .922941-.0908823 1.312941-.2735294.389118-.1844117.721765-.4314706.994412-.7394117.271765-.3088236.484412-.6635295.630882-1.0667647.146471-.405.220589-.8276471.220589-1.2688236 0-.4544117-.074118-.887647-.220589-1.2988235-.14647-.4102941-.359117-.7702941-.630882-1.0791177-.272647-.3088235-.6-.5497058-.982059-.7270588-.382941-.1755882-.818823-.2655882-1.305-.2655882zm5.657647-1.8547059v9.6582353c0 .9582353-.117353 1.8229412-.352941 2.5967647-.23647.7738235-.6 1.4285294-1.095 1.9667647-.494117.537353-1.116176.9529412-1.867941 1.2494118-.749118.2929412-1.642059.4429412-2.672647.4429412-.427059 0-.880588-.0379412-1.359706-.1120589-.479118-.0741176-.949412-.1844117-1.413529-.3308823-.465-.1464706-.909706-.3326471-1.336765-.5514706-.429706-.222353-.811765-.4729412-1.151471-.7535294l1.525589-2.0541177c.515294.4861765 1.099411.8567647 1.745294 1.1152941.649411.2567648 1.305.387353 1.968529.387353.631765 0 1.166471-.0944118 1.602353-.2770588.432353-.1861765.782647-.4411765 1.037647-.7658824.25853-.3255882.442941-.7111765.553235-1.1541176.110295-.4447059.165-.9326471.165-1.4647059v-.7755883h-.045c-.380294.522353-.871764.9202942-1.468235 1.1938236-.595588.2761764-1.262647.4138235-2.000294.4138235-.796765 0-1.516765-.1482353-2.164412-.4429412-.650294-.2929411-1.2-.692647-1.647353-1.1920588-.45-.5020588-.800294-1.0879412-1.05-1.7585294-.25147-.6697059-.375882-1.38-.375882-2.1317647 0-.7667647.120882-1.4885294.365294-2.1661765.243529-.6767647.589412-1.2661765 1.035882-1.7682353.45-.5011764.996177-.8973529 1.637647-1.1938235.642353-.2929412 1.359706-.4411765 2.155589-.4411765.75 0 1.45147.1552941 2.099117.4632353.647647.3088235 1.162942.7879412 1.545883 1.437353h.045v-1.5908824z" mask="url(#b)"/><path d="m164.850882 70.611h-4.79647v-2.4317647h12.377647v2.4317647h-4.796471v13.2167647h-2.784706z" mask="url(#b)"/><path d="m173.336647 78.4798235c0 .4120589.063529.8258824.189706 1.2370589.123529.4138235.313235.7808823.563823 1.1047058.249706.3255883.566471.5894118.949412.7967647.383824.2064706.840883.3097059 1.369412.3097059.531176 0 .988235-.1032353 1.372059-.3097059.382941-.2073529.697941-.4711764.949412-.7967647.249705-.3238235.437647-.6908823.563823-1.1047058.124412-.4111765.187941-.825.187941-1.2370589 0-.4120588-.063529-.8223529-.187941-1.2273529-.126176-.405-.314118-.7702941-.563823-1.0941177-.251471-.3238235-.566471-.5858823-.949412-.7844117-.383824-.1994118-.840883-.2991177-1.372059-.2991177-.528529 0-.985588.0997059-1.369412.2991177-.382941.1985294-.699706.4605882-.949412.7844117-.250588.3238236-.440294.6891177-.563823 1.0941177-.126177.405-.189706.8152941-.189706 1.2273529m-2.695588 0c0-.8391176.151765-1.6023529.453529-2.2870588.30353-.6873529.712059-1.2714706 1.227353-1.7576471.515294-.4861764 1.126765-.8620588 1.835294-1.1267647.705883-.2655882 1.457647-.3979411 2.251765-.3979411.796765 0 1.547647.1323529 2.256176.3979411.706765.2647059 1.316471.6405883 1.83353 1.1267647.515294.4861765.925588 1.0702942 1.225588 1.7576471.305294.6847059.454412 1.4479412.454412 2.2870588 0 .8391177-.149118 1.6041177-.454412 2.2985294-.3.6935295-.710294 1.2855883-1.225588 1.7788236-.517059.495-1.126765.8805882-1.83353 1.1602941-.708529.2805882-1.459411.42-2.256176.42-.794118 0-1.545882-.1394118-2.251765-.42-.708529-.2797059-1.32-.6652941-1.835294-1.1602941-.515294-.4932353-.923823-1.0852941-1.227353-1.7788236-.301764-.6944117-.453529-1.4594117-.453529-2.2985294" mask="url(#b)"/><path d="m197.139529 72.9099706c.694412 0 1.287353.1208823 1.780589.3635294.492353.2426471.897353.5655882 1.215.9635294.316764.3961765.547941.8532353.697941 1.3702941.14647.5152941.218823 1.0455883.218823 1.5917647v6.6282353h-2.652353v-5.8782353c0-.3088235-.021176-.632647-.065294-.9723529-.043235-.3388235-.140294-.6441177-.286764-.9167647-.148236-.2717647-.351177-.4976471-.607942-.675-.258529-.1764706-.6-.2655882-1.027058-.2655882-.415589 0-.766765.0891176-1.063236.2655882-.292941.1773529-.538235.405-.727941.6855882-.192353.2788236-.331765.5929412-.42.9379412-.09.3476471-.132353.6891176-.132353 1.0288235v5.79h-2.652353v-6.4094117c0-.6617647-.158823-1.2114706-.473823-1.6455883-.319412-.4341176-.815294-.6529411-1.494706-.6529411-.396177 0-.742941.0864705-1.037647.255-.296471.1685294-.533824.3873529-.716471.6529411-.186176.2638236-.325588.5691177-.422647.9167647-.094412.345-.142941.6961765-.142941 1.0482353v5.835h-2.652353v-10.6067647h2.52v1.7002941h.045c.116471-.2647058.275294-.5152941.475588-.7508823.197647-.2364706.434118-.45.706765-.6414706.271765-.1914706.585882-.3432353.938823-.4535294.352942-.1111765.744706-.165 1.171765-.165.825883 0 1.509706.1844118 2.054118.5532353.544412.3670588.965294.8532353 1.26 1.457647.352941-.6494117.825882-1.1444117 1.414412-1.4920588.589411-.345 1.282941-.5188235 2.077058-.5188235" mask="url(#b)"/><path d="m206.0475 78.4798235c0 .4120589.061765.8258824.189706 1.2370589.122647.4138235.31147.7808823.562059 1.1047058.249706.3255883.56647.5894118.949411.7967647.382059.2064706.839118.3097059 1.369412.3097059.532941 0 .988236-.1032353 1.372059-.3097059.382941-.2073529.699706-.4711764.949412-.7967647.25147-.3238235.437647-.6908823.563823-1.1047058.126177-.4111765.187942-.825.187942-1.2370589 0-.4120588-.061765-.8223529-.187942-1.2273529-.126176-.405-.312353-.7702941-.563823-1.0941177-.249706-.3238235-.566471-.5858823-.949412-.7844117-.383823-.1994118-.839118-.2991177-1.372059-.2991177-.530294 0-.987353.0997059-1.369412.2991177-.382941.1985294-.699705.4605882-.949411.7844117-.250589.3238236-.439412.6891177-.562059 1.0941177-.127941.405-.189706.8152941-.189706 1.2273529m-2.695588 0c0-.8391176.15-1.6023529.451764-2.2870588.301765-.6873529.712059-1.2714706 1.227353-1.7576471.515295-.4861764 1.125-.8620588 1.835295-1.1267647.705-.2655882 1.457647-.3979411 2.251764-.3979411.796765 0 1.549412.1323529 2.256177.3979411.706764.2647059 1.318235.6405883 1.833529 1.1267647.517059.4861765.925588 1.0702942 1.227353 1.7576471.301765.6847059.451765 1.4479412.451765 2.2870588 0 .8391177-.15 1.6041177-.451765 2.2985294-.301765.6935295-.710294 1.2855883-1.227353 1.7788236-.515294.495-1.126765.8805882-1.833529 1.1602941-.706765.2805882-1.459412.42-2.256177.42-.794117 0-1.546764-.1394118-2.251764-.42-.710295-.2797059-1.32-.6652941-1.835295-1.1602941-.515294-.4932353-.925588-1.0852941-1.227353-1.7788236-.301764-.6944117-.451764-1.4594117-.451764-2.2985294" mask="url(#b)"/><path d="m217.164794 73.2202059h2.540294v1.7664706h.045c.294706-.6167647.707647-1.1188236 1.237059-1.5026471.531177-.3829412 1.149706-.5744118 1.857353-.5744118.102353 0 .212647.0052942.330882.012353.117353.0052941.220589.0238235.308824.0538235v2.4317647c-.177353-.045-.327353-.0741176-.451765-.0882353-.127059-.0141176-.247941-.0220588-.365294-.0220588-.604412 0-1.090588.1102941-1.459412.3317647-.367059.2205882-.654706.4861765-.860294.795-.20647.3079412-.347647.627353-.42.9511765-.075882.3220588-.112059.5805882-.112059.7720588v5.6797059h-2.650588z" mask="url(#b)"/><path d="m225.474706 73.2202059h2.540294v1.7664706h.045c.294706-.6167647.707647-1.1188236 1.237059-1.5026471.531176-.3829412 1.149706-.5744118 1.858235-.5744118.101471 0 .211765.0052942.330882.012353.116471.0052941.220589.0238235.307942.0538235v2.4317647c-.175589-.045-.327353-.0741176-.451765-.0882353-.125294-.0141176-.246177-.0220588-.365294-.0220588-.604412 0-1.090588.1102941-1.457647.3317647-.368824.2205882-.656471.4861765-.862059.795-.208235.3079412-.347647.627353-.42.9511765-.074118.3220588-.112059.5805882-.112059.7720588v5.6797059h-2.650588z" mask="url(#b)"/><path d="m235.397735 78.4798235c0 .4120589.06353.8258824.187941 1.2370589.124412.4138235.311471.7808823.563824 1.1047058.249706.3255883.566471.5894118.949412.7967647.383823.2064706.840882.3097059 1.371176.3097059.529412 0 .986471-.1032353 1.370294-.3097059.381177-.2073529.701471-.4711764.949412-.7967647.251471-.3238235.437647-.6908823.565588-1.1047058.124412-.4111765.186177-.825.186177-1.2370589 0-.4120588-.061765-.8223529-.186177-1.2273529-.127941-.405-.314117-.7702941-.565588-1.0941177-.247941-.3238235-.568235-.5858823-.949412-.7844117-.383823-.1994118-.840882-.2991177-1.370294-.2991177-.530294 0-.987353.0997059-1.371176.2991177-.382941.1985294-.699706.4605882-.949412.7844117-.252353.3238236-.439412.6891177-.563824 1.0941177-.124411.405-.187941.8152941-.187941 1.2273529m-2.695588 0c0-.8391176.15-1.6023529.451765-2.2870588.303529-.6873529.710294-1.2714706 1.227353-1.7576471.517059-.4861764 1.126764-.8620588 1.835294-1.1267647.706765-.2655882 1.457647-.3979411 2.253529-.3979411.795 0 1.547647.1323529 2.254412.3979411.706765.2647059 1.316471.6405883 1.833529 1.1267647.517059.4861765.927353 1.0702942 1.227353 1.7576471.301765.6847059.45353 1.4479412.45353 2.2870588 0 .8391177-.151765 1.6041177-.45353 2.2985294-.3.6935295-.710294 1.2855883-1.227353 1.7788236-.517058.495-1.126764.8805882-1.833529 1.1602941-.706765.2805882-1.459412.42-2.254412.42-.795882 0-1.546764-.1394118-2.253529-.42-.70853-.2797059-1.318235-.6652941-1.835294-1.1602941-.517059-.4932353-.923824-1.0852941-1.227353-1.7788236-.301765-.6944117-.451765-1.4594117-.451765-2.2985294" mask="url(#b)"/><path d="m244.922735 73.2202059h2.872941l2.211177 7.6014706h.043235l2.278236-7.6014706h2.827941l2.298529 7.6014706h.043235l2.254412-7.6014706h2.76353l-3.670589 10.6067647h-2.694706l-2.409705-7.4241177h-.043236l-2.386764 7.4241177h-2.696471z" mask="url(#b)"/></g><g fill="#d03238"><path d="m34.1109706 67.5986471c-4.605 0-8.3532353 3.7464705-8.3532353 8.355 0 4.605 3.7482353 8.3532353 8.3532353 8.3532353 4.6085294 0 8.355-3.7482353 8.355-8.3532353 0-4.6085295-3.7464706-8.355-8.355-8.355" mask="url(#b)"/><path d="m22.7558824 68.3414118c-1.0491177-.4755883-2.2111765-.7429412-3.4367648-.7429412-4.6058823 0-8.3532352 3.7482353-8.3532352 8.355 0 4.605 3.7473529 8.3532353 8.3532352 8.3532353 1.2255883 0 2.3876471-.267353 3.4367648-.7411765-1.4629412-2.1785294-2.3197059-4.7982353-2.3197059-7.6120588 0-2.817353.8567647-5.4352941 2.3197059-7.6120588" mask="url(#b)"/><path d="m8.50120588 67.6020882c-.04852941-.0017647-.09794117-.0035294-.14647059-.0035294-4.60852941 0-8.355 3.7464706-8.355 8.355 0 4.605 3.74647059 8.3532353 8.355 8.3532353.04852942 0 .09794118-.0035294.14647059-.0035294-1.78941176-2.3126471-2.85617647-5.2085294-2.85617647-8.3497059 0-3.1438235 1.06676471-6.0388235 2.85617647-8.3514706" mask="url(#b)"/></g></g></svg>