<svg height="34" width="134" xmlns="http://www.w3.org/2000/svg"><g fill="#fff" fill-rule="evenodd"><path d="M71.963 31.07l.1-8.153h-.066L70 31.07h-1.895l-1.93-8.153h-.05l.084 8.153h-2.433V19.193h3.389l1.912 7.65h.067l1.863-7.65h3.59V31.07zm12.957-2.55a4.199 4.199 0 0 1-.714 1.493c-.324.425-.743.76-1.257 1.007-.515.246-1.136.369-1.862.369-.727 0-1.342-.123-1.846-.37a3.36 3.36 0 0 1-1.233-1.006 4.063 4.063 0 0 1-.688-1.493 7.755 7.755 0 0 1-.209-1.845v-7.482h2.7v7.247c0 .335.02.649.06.94s.108.54.21.746c.1.207.234.371.402.495.168.123.386.184.654.184.269 0 .487-.061.654-.184.168-.124.302-.288.403-.495.1-.207.17-.456.21-.746.039-.291.058-.605.058-.94v-7.247h2.684v7.482c0 .66-.075 1.274-.226 1.845m7.554-6.492a2.15 2.15 0 0 0-.705-.545 1.922 1.922 0 0 0-.839-.193c-.302 0-.573.095-.814.286-.24.19-.36.504-.36.94 0 .37.123.659.369.866.246.207.61.434 1.09.68.27.135.555.295.853.48.298.184.571.41.819.68.248.269.454.59.617.966.162.375.245.82.245 1.336 0 .639-.102 1.202-.305 1.69-.202.486-.475.889-.819 1.208-.343.32-.739.56-1.188.723a4.087 4.087 0 0 1-1.396.244 4.646 4.646 0 0 1-1.954-.403c-.587-.269-1.06-.582-1.417-.94l1.375-2.012c.257.268.554.483.889.646.335.161.677.243 1.024.243.324 0 .597-.107.82-.319.225-.213.337-.509.337-.89 0-.39-.135-.7-.403-.93s-.66-.472-1.174-.73a7.412 7.412 0 0 1-.914-.52 3.38 3.38 0 0 1-.755-.688 3.02 3.02 0 0 1-.512-.94c-.123-.357-.185-.782-.185-1.274 0-.66.11-1.227.328-1.703.218-.475.503-.864.855-1.166a3.52 3.52 0 0 1 1.175-.67c.43-.146.864-.219 1.3-.219.648 0 1.23.106 1.744.317.514.211.945.5 1.292.867zm3.333 9.042h2.7V19.193h-2.7zm10.244-9.042a2.15 2.15 0 0 0-.705-.545 1.92 1.92 0 0 0-.839-.193c-.301 0-.572.095-.813.286-.24.19-.36.504-.36.94 0 .37.122.659.368.866.246.207.61.434 1.09.68.27.135.555.295.854.48.298.184.57.41.819.68.247.269.453.59.616.966.163.375.245.82.245 1.336 0 .639-.102 1.202-.304 1.69-.203.486-.475.889-.82 1.208-.342.32-.739.56-1.188.723a4.087 4.087 0 0 1-1.395.244 4.641 4.641 0 0 1-1.954-.403c-.588-.269-1.06-.582-1.418-.94l1.375-2.012c.257.268.554.483.89.646.335.161.676.243 1.023.243.324 0 .598-.107.822-.319.223-.213.336-.509.336-.89 0-.39-.135-.7-.404-.93s-.66-.472-1.174-.73a7.412 7.412 0 0 1-.914-.52 3.392 3.392 0 0 1-.755-.688 3.044 3.044 0 0 1-.512-.94c-.123-.357-.184-.782-.184-1.274 0-.66.11-1.227.327-1.703.218-.475.503-.864.856-1.166a3.52 3.52 0 0 1 1.174-.67c.43-.146.864-.219 1.3-.219.648 0 1.23.106 1.745.317.514.211.945.5 1.291.867zm3.333 9.042h2.7V19.193h-2.7zm11.268-5.972a8.21 8.21 0 0 0-.118-1.434 4.648 4.648 0 0 0-.344-1.15 2.134 2.134 0 0 0-.561-.763 1.202 1.202 0 0 0-.79-.277c-.3 0-.567.093-.795.277-.23.185-.42.44-.571.764a4.44 4.44 0 0 0-.336 1.149c-.072.442-.109.92-.109 1.434 0 .514.037.995.11 1.443.072.447.184.833.335 1.158.15.324.34.581.57.771.23.19.495.285.797.285.302 0 .565-.095.789-.285.223-.19.41-.447.561-.771.151-.325.266-.711.344-1.158a8.35 8.35 0 0 0 .118-1.443m2.75 0c0 .94-.105 1.797-.318 2.575-.212.778-.515 1.44-.906 1.988-.39.548-.87.973-1.434 1.275-.565.302-1.2.452-1.904.452s-1.34-.15-1.904-.452a4.158 4.158 0 0 1-1.434-1.275c-.392-.548-.694-1.21-.906-1.988-.213-.778-.319-1.635-.319-2.575 0-.94.104-1.793.31-2.558.207-.766.507-1.42.898-1.963a4.1 4.1 0 0 1 1.435-1.258c.564-.296 1.204-.445 1.92-.445.704 0 1.34.15 1.904.445a4.1 4.1 0 0 1 1.434 1.258c.391.543.694 1.197.906 1.963.213.765.319 1.618.319 2.558m7.305 5.972l-2.75-7.23h-.05l.066 7.23h-2.399V19.193h2.952l2.735 7.33h.05l-.05-7.33h2.315V31.07zM10.09 10.63a6.647 6.647 0 0 0 1.174-1.356c-.488-.96-.823-1.875-1.143-3.2l1.296-.656c.274 1.051.41 1.479.686 2.134.244-.777.35-1.235.472-2.18H10.09zm-2.575-.96c.518-.122.518-.122.976-.259V8.268h-.976zm0-2.911h.976v-1.22h-.976zm0-2.744h.976V2.827h-.976zm5.776-.259c.565 0 .701 0 1.189-.045-.06.243-.092.442-.152.823-.26 1.753-.35 2.225-.61 3.063-.183.61-.366 1.097-.625 1.63.473.55.793.854 1.554 1.418-.426.504-.579.748-1.035 1.617-.641-.595-.93-.9-1.387-1.51-.412.58-.686.9-1.281 1.525-.442-.702-.564-.869-.854-1.174v.092c0 .548.016.945.077 1.295H8.429c.046-.335.062-.686.062-1.204v-.29c-.534.168-1.068.305-2.333.61a7.77 7.77 0 0 0-.853.244l-.306-1.753c.26 0 .26 0 .946-.106V2.84c-.153 0-.198 0-.366.016v1.25c-.336-.046-.58-.06-1.158-.06h-.183V5.31h.594c.381 0 .61-.015.823-.076v1.83c-.244-.062-.457-.078-.823-.078h-.488v1.297h.26c.457 0 .655-.016.975-.077V9.93c-.305-.062-.534-.077-.976-.077h-.259v2.043c.823.442 1.235.579 2.134.686.655.076 2.5.152 3.765.152 1.31 0 3.063-.107 4.526-.274-.304.792-.441 1.28-.517 2.012-.884.03-3.2.076-4.467.076-3.23 0-4.267-.137-5.532-.701a5.366 5.366 0 0 1-2.256-1.814c-.152 1.128-.366 1.936-.67 2.652C.763 14.03.519 13.8 0 13.435a6.8 6.8 0 0 0 .564-1.737C.732 10.828.87 9.41.87 8.45c0-.275 0-.442-.03-.7l1.447.197c-.015.183-.015.304-.03.625-.016.457-.016.777-.045 1.357.167.304.273.457.548.746V6.987H1.89c-.701 0-1.02.016-1.433.077v-1.83c.412.062.717.077 1.433.077h.625V4.046h-.38c-.626 0-.9.015-1.342.06V2.309c.381.061.625.077 1.341.077h.381v-.32c0-.58-.03-.96-.076-1.311h1.905c-.076.365-.106.701-.106 1.31v.321h.183c.365 0 .548 0 .777-.016V1.074a14.15 14.15 0 0 0 1.692.092h5.944c.656 0 1.174-.031 1.662-.092v1.829a17.456 17.456 0 0 0-1.662-.076H10.09v.93zm4.466 5.868h1.097v-6.05h-1.097zm1.097 2.5v-.716h-1.097v1.524h-1.89c.046-.503.075-1.036.075-1.92V3.238c0-.672-.014-1.175-.06-1.617.412.046.732.061 1.402.061h2.027c.519 0 .9-.015 1.326-.06-.03.259-.03.746-.03 1.554v7.286c0 .457 0 .594.015 1.128a12.294 12.294 0 0 0 2.774-3.628H22.07c-.472 0-.792.016-1.189.061V6.027c.457.047.67.062 1.22.062h1.905V4.366h-1.083c-.732 0-1.264.016-1.722.06v-1.98c.503.061.976.09 1.722.09h1.083V1.79c0-.502-.015-.808-.076-1.173h2.042a8.335 8.335 0 0 0-.061 1.173v.747h1.524c.793 0 1.25-.03 1.738-.092v1.997a19.923 19.923 0 0 0-1.768-.076H25.91v1.723h1.875c.792 0 1.356-.031 1.875-.077V8.04a19.427 19.427 0 0 0-1.875-.077h-1.403c.763 1.585 1.997 2.926 3.704 4.024-.442.701-.732 1.235-1.036 1.997-1.57-1.265-2.591-2.53-3.17-3.963.015.564.03.838.03 1.463v1.798c0 .595.016 1.052.076 1.51h-2.073c.061-.458.092-.93.092-1.51V11.47c0-.564 0-.87.03-1.494-.594 1.174-.853 1.585-1.493 2.332-.61.747-1.113 1.219-1.89 1.799a8.074 8.074 0 0 0-1.357-1.57c.305-.183.396-.244.64-.412zM42.921.678a8.971 8.971 0 0 1 1.402 1.935l-1.311.686a11.035 11.035 0 0 0-1.387-1.997zm-.336 3.292c1.19 1.692 1.875 3.2 2.424 5.258l-2.103 1.021a14.726 14.726 0 0 0-1.128-3.444c-.442-.976-.656-1.372-1.068-1.951zm-1.493-2.484c.61.67.96 1.173 1.401 2.011l-1.325.671c-.411-.777-.915-1.524-1.417-2.058zM30.91 4.595h.091c.458 0 2.287-.168 3.065-.29.273-1.6.38-2.5.38-3.079 0-.046 0-.121-.015-.228l2.362.228a3.829 3.829 0 0 0-.107.442c-.015.061-.137.717-.35 1.967-.061.32-.061.335-.107.518.366-.015.58-.03.808-.03 1.083 0 1.875.289 2.378.883.518.625.716 1.372.716 2.805 0 2.728-.457 4.847-1.234 5.685-.458.503-.945.686-1.783.686-.656 0-1.296-.122-2.333-.427.03-.335.03-.457.03-.685 0-.534-.045-.915-.197-1.632.777.336 1.661.58 2.164.58.381 0 .61-.244.792-.854.23-.731.412-2.316.412-3.475 0-.732-.106-1.128-.38-1.372-.2-.198-.443-.259-.992-.259-.259 0-.426.015-.761.046-.534 2.484-1.373 4.8-2.79 7.758-.137.29-.152.32-.244.518l-2.119-1.143c1.037-1.357 2.333-4.42 2.973-6.966-1.082.153-2.119.336-2.56.458zM48.285 9.06a1.965 1.965 0 0 0-.503 1.311c0 .564.274.991.64.991.244 0 .473-.26.778-.915.274-.548.579-1.356.883-2.24-.808.077-1.356.335-1.798.853zm-.655-7.575c.32.061.716.077 1.554.077.96 0 2.348-.061 2.988-.138.29-.03.411-.076.61-.182l1.417 1.204a2.752 2.752 0 0 0-.35.67c-.122.35-.808 2.44-1.067 3.323 1.127.183 1.905.411 2.987.838.091-.655.137-1.372.137-2.667 0-.366-.015-.534-.06-.838l2.27.091c-.06.32-.076.473-.091 1.067-.046 1.341-.122 2.225-.275 3.186.35.182 1.159.594 1.6.854.352.182.412.228.625.304l-.792 2.409c-.427-.382-1.189-.884-1.996-1.342-.443 1.098-.915 1.844-1.708 2.637-.64.655-1.402 1.204-2.24 1.661-.717-.9-.93-1.113-1.616-1.661 1.128-.549 1.677-.915 2.286-1.524a5.533 5.533 0 0 0 1.342-2.104c-.915-.442-1.83-.732-3.08-.975-.654 1.966-1.081 3.033-1.524 3.765-.594.975-1.341 1.463-2.21 1.463-.655 0-1.34-.305-1.828-.808-.55-.564-.84-1.372-.84-2.317 0-1.432.702-2.682 1.937-3.46.792-.487 1.646-.716 2.941-.777.306-.93.595-1.936.839-2.896-.396.046-1.327.091-2.744.168-.244.015-.594.03-1.036.076zM60.616 3.91c.578-.046.884-.107 1.89-.32 3.185-.67 4.313-.839 5.837-.839 1.509 0 2.728.305 3.613.915 1.158.793 1.798 2.057 1.798 3.566 0 2.165-1.25 3.979-3.46 5.076-1.448.7-2.82 1.02-5.533 1.296-.243-.99-.396-1.387-.945-2.348 2.028-.06 3.384-.244 4.45-.61 1.114-.365 1.983-.96 2.516-1.721.35-.504.519-1.022.519-1.647 0-.64-.199-1.158-.595-1.57-.519-.533-1.266-.777-2.317-.777-1.585 0-3.567.35-6.005 1.082-.397.122-.884.29-1.266.457zm25.743-1.022c1.509 1.845 2.484 3.766 3.11 6.204l-2.089 1.02c-.518-2.574-1.524-4.77-2.926-6.34zm-10.974 1.57h.092c.456 0 2.285-.167 3.063-.289.275-1.6.381-2.5.381-3.079 0-.061 0-.137-.016-.229l2.363.229a3.732 3.732 0 0 0-.106.443c-.016.045-.138.715-.351 1.965-.06.32-.06.32-.106.518.365-.015.579-.03.807-.03 1.082 0 1.875.29 2.378.884.518.625.716 1.372.716 2.804 0 2.728-.458 4.848-1.235 5.686-.456.503-.944.686-1.783.686-.655 0-1.296-.122-2.331-.427.03-.336.03-.472.03-.686 0-.533-.046-.93-.198-1.646.777.35 1.661.594 2.164.594.38 0 .61-.243.793-.853.228-.732.411-2.317.411-3.475 0-.732-.106-1.129-.381-1.372-.198-.199-.442-.259-.99-.259-.26 0-.428.015-.763.03-.533 2.5-1.372 4.816-2.79 7.774l-.243.518L75.17 13.1c1.037-1.372 2.333-4.42 2.972-6.966-1.081.153-2.118.335-2.56.457zm20.24 6.707c-.457 0-.761.244-.761.61 0 .533.579.838 1.57.838.228 0 .289 0 .64-.076-.23-.9-.732-1.372-1.448-1.372zm-3.551-9.602c.564.076 1.067.106 1.982.106 1.31 0 3.2-.076 4.618-.183.594-.045.777-.076 1.037-.198l1.081 1.585c-.32.183-.335.183-1.524 1.235-1.585 1.417-2.073 1.814-3.307 2.682a8.391 8.391 0 0 1 2.515-.365c1.295 0 2.363.35 3.186 1.037.746.624 1.112 1.463 1.112 2.53 0 1.478-.716 2.667-2.088 3.459-1.02.595-2.362.915-3.826.915-1.326 0-2.454-.274-3.094-.762a2.28 2.28 0 0 1-.93-1.86c0-1.31 1.19-2.301 2.805-2.301 1.082 0 2.042.441 2.683 1.235.304.365.472.685.7 1.31 1.083-.442 1.525-1.02 1.525-1.982 0-1.112-1.128-1.829-2.881-1.829-2.24 0-4.329.87-6.219 2.56L90.23 8.772c1.433-.686 4.618-3.216 6.767-5.365-1.25.106-1.509.122-3.75.228-.487.03-.624.03-1.081.092zm26.475.625c-.107.213-.168.35-.274.655a38.593 38.593 0 0 1-1.54 3.612c.762.96 1.067 1.448 1.34 2.165.26.625.398 1.356.398 1.996 0 1.021-.412 1.753-1.143 2.027-.381.153-.915.214-1.631.214-.138 0-.306 0-.626-.03-.03-.96-.106-1.342-.411-1.952.32.046.564.061.808.061.746 0 1.006-.152 1.006-.61 0-.426-.138-1.036-.335-1.523-.305-.747-.64-1.265-1.418-2.165.716-1.417 1.128-2.484 1.463-3.795h-1.753v10.152c0 .837.03 1.37.092 1.813h-2.088c.045-.549.076-1.143.076-1.753V2.172c0-.458-.015-.778-.046-1.22.412.046.747.06 1.25.06h2.743c.61 0 .884-.014 1.22-.076zm-9.74 3.535c.199-.746.275-1.234.366-2.011h-1.722c.198.655.274 1.052.411 2.011zm-1.768 6.418h2.515v-1.784h-2.515zm0 2.606h-1.981c.06-.473.076-.839.076-1.463v-3.49c0-.58-.015-.9-.061-1.235.366.03.67.045 1.234.045h4.1c.656 0 .9-.015 1.114-.045-.031.274-.046.457-.046 1.051v3.994c0 .503.015.808.06 1.127h-1.996v-.837h-2.5zm3.597-12.803c.67 0 .975-.015 1.357-.062v1.89c-.26-.045-.472-.06-.96-.06-.122.853-.214 1.341-.427 2.011h.243c.64 0 .976-.014 1.265-.06v1.95a8.662 8.662 0 0 0-1.173-.06h-5.106c-.762 0-1.113.015-1.555.076V5.646c.412.062.762.076 1.57.076h.092c-.046-.578-.214-1.386-.397-2.011-.487.015-.685.03-.975.06V1.866c.35.062.686.077 1.448.077h1.417v-.335c0-.397-.03-.717-.076-1.022h2.135a6.276 6.276 0 0 0-.077 1.006v.35zm16.552 5.106c-.244.457-.35.61-.594.975 1.631-.03 1.631-.03 2.896-.122a5.738 5.738 0 0 0-.518-.473l.915-.38zm-4.557-3.689h8.46v-.762h-8.46zm-.06 3.689c-.108 1.905-.214 2.926-.474 4.237-.289 1.417-.61 2.301-1.264 3.46a8.95 8.95 0 0 0-1.6-1.692c.502-.868.746-1.494.99-2.56.381-1.647.549-4.055.549-7.607 0-.96-.016-1.432-.092-1.981.549.061 1.098.092 2.073.092h8.581c.793 0 1.22-.016 1.707-.076-.03.502-.046.686-.046 1.295v1.54c0 .564 0 .731.046 1.157-.518-.03-.99-.045-1.677-.045h-8.733l-.015.655h8.856c.944 0 1.31-.015 1.752-.06V7.11a14.067 14.067 0 0 0-1.554-.061h-.748c.717.655 1.037.99 2.09 2.195l-1.662.93c-.366-.488-.473-.626-.732-.96-.808.06-1.493.106-2.058.151v1.022h2.606c.915 0 1.16-.016 1.48-.046v1.661c-.488-.045-.9-.06-1.51-.06h-2.576v.883h3.201c1.021 0 1.387-.015 1.814-.06v1.752c-.534-.076-1.036-.091-2.073-.091h-7.636c-.884 0-1.479.03-1.982.091v-1.753c.442.046.87.061 1.768.061h2.957v-.883h-2.149c-.64 0-1.067.015-1.555.06v-1.661c.412.03.671.046 1.57.046h2.134v-.915c-3.246.168-3.246.168-3.582.214l-.213-1.677c.335.046.488.046 1.021.046h.732c.274-.397.396-.61.594-1.006zM1.146 25.346h.642c1.223 0 1.4-.75 1.4-1.871v-.58c0-.872-.19-1.636-1.3-1.636h-.742zM0 20.285h1.972c1.603 0 2.366.812 2.366 2.554v.656c0 1.622-.484 2.818-2.445 2.818h-.746v4.757H0zm5.417 5.363c0-1.325.007-2.068-.016-2.797h1.094c.016.216.04.732.04 1.284.304-1.013 1.011-1.379 1.732-1.396v1.418c-1.016.009-1.703.594-1.703 2.08v4.833H5.417zm6.554.611v-1.028c0-.766-.123-1.52-.946-1.52-.776 0-.98.641-.98 1.53v1.018zm-1.934.938v1.344c0 .818.163 1.67.973 1.67.78 0 .924-.635.924-1.422v-.067h1.125v.058c0 .953-.221 2.42-2.044 2.42-1.717 0-2.104-1.126-2.104-2.795v-3.062c0-1.246.436-2.622 2.123-2.622 1.585 0 2.049 1.176 2.049 2.623v1.853zm5.105 1.43v.36c0 .798.318 1.223.904 1.223.624 0 .872-.392.872-1.148 0-.794-.234-1.174-1.171-1.792-1.101-.725-1.613-1.303-1.613-2.444 0-1.214.587-2.105 1.932-2.105 1.456 0 1.905.927 1.905 2.162v.376h-1.119v-.454c0-.698-.202-1.095-.796-1.095-.548 0-.773.38-.773 1.015 0 .64.198.922 1.02 1.47 1.208.792 1.78 1.363 1.78 2.717 0 1.49-.673 2.288-2.085 2.288-1.61 0-2.02-1.07-2.02-2.202v-.372zm6.97-2.368v-1.028c0-.766-.124-1.52-.947-1.52-.776 0-.98.641-.98 1.53v1.018zm-1.935.938v1.344c0 .818.163 1.67.973 1.67.78 0 .924-.635.924-1.422v-.067h1.125v.058c0 .953-.221 2.42-2.044 2.42-1.717 0-2.103-1.126-2.103-2.795v-3.062c0-1.246.435-2.622 2.122-2.622 1.585 0 2.049 1.176 2.049 2.623v1.853zm4.26-1.844c0-1.65 0-2.096-.016-2.503h1.093c.024.186.047.472.047.823.242-.602.731-.952 1.506-.952.9 0 1.62.514 1.62 2.024v6.325H27.54v-6.1c0-.795-.267-1.198-.863-1.198-.689 0-1.092.343-1.092 1.897v5.401h-1.148zm4.958-2.502h.942v-2.02h1.14v2.02h1.157v1.018h-1.158v5.519c0 .423.075.828.593.828.154 0 .399-.016.514-.049v.89c-.245.101-.612.125-.89.125-.797 0-1.356-.33-1.356-1.585v-5.728h-.942zm6.894 3.408v-1.028c0-.766-.123-1.52-.947-1.52-.776 0-.98.641-.98 1.53v1.018zm-1.935.938v1.344c0 .818.163 1.67.973 1.67.78 0 .924-.635.924-1.422v-.067h1.125v.058c0 .953-.22 2.42-2.044 2.42-1.716 0-2.103-1.126-2.103-2.795v-3.062c0-1.246.435-2.622 2.122-2.622 1.585 0 2.05 1.176 2.05 2.623v1.853zm5.23-1.97v3.337c0 1.047.258 1.585.922 1.585.859 0 1.06-.823 1.06-1.955V25.49c0-.904-.09-1.718-1.026-1.718-.681 0-.956.562-.956 1.454zm3.13-5.419v9.144c0 .977 0 1.657.015 2.118h-1.093a8.391 8.391 0 0 1-.047-.809c-.213.505-.59.938-1.432.938-1.384 0-1.73-1.095-1.73-2.672v-3.369c0-1.453.577-2.437 1.85-2.437.702 0 1.108.288 1.289.617v-3.53zm8.812 8.664V25.28c0-.946-.22-1.508-.907-1.508-.932 0-1.083.885-1.083 2.019v2.524c0 1.245.298 1.816 1.035 1.816.626 0 .955-.519.955-1.659zm-3.13-8.664h1.149v3.799c.229-.516.691-.886 1.468-.886 1.18 0 1.67.963 1.67 2.383v3.17c0 1.679-.35 2.908-1.854 2.908-.77 0-1.17-.386-1.362-.9a6.676 6.676 0 0 1-.047.788H48.38c.024-.465.016-1.2.016-2.173zm6.198 3.043c.543 2.99 1.063 5.83 1.136 6.785h.031c.163-1.328.71-3.967 1.208-6.785h1.156l-1.827 8.659c-.489 2.289-1.18 2.447-2.078 2.447-.21 0-.44-.032-.603-.065l.014-1.052c.062.018.3.05.457.05.597 0 .854-.258 1.08-1.516l-1.807-8.523z"/></g></svg>