<svg height="67" width="117" xmlns="http://www.w3.org/2000/svg"><filter id="a" height="143.6%" width="122.9%" x="-11.4%" y="-21.8%"><feOffset in="SourceAlpha" result="shadowOffsetOuter1"/><feGaussianBlur in="shadowOffsetOuter1" result="shadowBlurOuter1" stdDeviation="3"/><feColorMatrix in="shadowBlurOuter1" result="shadowMatrixOuter1" values="0 0 0 0 0 0 0 0 0 0 0 0 0 0 0 0 0 0 0.2 0"/><feMerge><feMergeNode in="shadowMatrixOuter1"/><feMergeNode in="SourceGraphic"/></feMerge></filter><g fill="none" fill-rule="evenodd" filter="url(#a)" transform="translate(6 6)"><path d="M0 0h105v55H0z" fill="#fff" fill-opacity=".85"/><g fill="#d92128"><path d="M87.264 40.164h.501c1.765 0 1.964-1.214 1.964-3.765 0-2.548-.199-3.764-1.964-3.764h-.501zm-3.218-10.312h3.993c1.623 0 2.873.559 3.716 1.704.82 1.114 1.235 2.759 1.235 4.843 0 2.085-.415 3.73-1.235 4.843-.843 1.146-2.093 1.705-3.716 1.705h-3.993zm-22.439 0v9.84c.065 1.18.532 2.086 1.388 2.692.779.552 1.84.832 3.153.832s2.374-.28 3.152-.832c.856-.606 1.323-1.513 1.388-2.694v-9.838h-3.375v9.662c-.043.781-.745.899-1.165.899-.421 0-1.123-.118-1.166-.902v-9.659zM81.82 42.946v-9.952c-.065-1.18-.532-2.085-1.388-2.691-.779-.552-1.84-.832-3.153-.832s-2.374.28-3.152.832c-.856.606-1.323 1.512-1.388 2.693v9.95h3.375v-9.774c.042-.781.745-.899 1.165-.899.421 0 1.123.118 1.166.902v9.771zm-30.251-6.715c0 1.372.218 3.195 1.525 3.195 1.306 0 1.524-1.823 1.524-3.195 0-1.372-.218-3.195-1.524-3.195-1.307 0-1.525 1.823-1.525 3.195"/><path d="M53.092 32.156a4.075 4.075 0 1 0 0 8.15 4.075 4.075 0 0 0 0-8.15m0-3.156c3.988 0 7.231 3.244 7.231 7.23 0 3.988-3.243 7.232-7.23 7.232-3.988 0-7.232-3.244-7.232-7.231 0-3.987 3.244-7.231 7.231-7.231m-11.414.471c-1.457.125-2.53.68-3.187 1.653-.608.897-.661 1.855-.656 2.225.027 1.963 1.554 3.18 2.782 4.16.817.651 1.523 1.214 1.556 1.822.014.254-.062.458-.228.605-.369.327-1.134.324-1.678.221-.756-.143-1.485-.44-2.293-.938l-.027-.017v3.146l.01.005c.817.459 2.07.74 3.348.75 1.286.012 2.302-.363 3.021-1.113.682-.712 1.048-1.744 1.003-2.83-.09-2.18-1.63-3.36-2.868-4.31-.735-.564-1.37-1.051-1.434-1.593-.031-.274.031-.494.186-.656.21-.22.577-.312 1.058-.27.746.066 1.399.285 2.31.611l.051.022.016.007v-2.956l-.055-.027c-1.016-.415-2.024-.594-2.915-.517m-3.91.381l-3.142 9.252-.001 3.842H31.28v-3.835l-3.142-9.259h3.398l1.416 4.975 1.416-4.975zm-14.852 9.771c.187.46.605.633.941.633.336 0 .755-.173.942-.633.186-.46.269-1.478.269-3.37 0-1.89-.083-2.908-.27-3.369a1.004 1.004 0 0 0-.94-.633c-.337 0-.755.173-.942.633-.187.46-.27 1.478-.27 3.37 0 1.89.083 2.909.27 3.37m-3.481-3.37c0-4.755 1.322-6.783 4.422-6.783 3.1 0 4.423 2.028 4.423 6.783 0 4.754-1.323 6.782-4.423 6.782s-4.422-2.028-4.422-6.782m-1.21-6.492v9.028c0 1.495-.422 2.658-1.262 3.364-.9.756-2.498 1.185-3.963.655v-2.615c.844.116 1.362.113 1.716-.214.24-.223.358-.6.358-1.154v-9.064z"/></g><text fill="#333" font-family="HiraginoSans-W5, Hiragino Sans" font-size="10" font-weight="400"><tspan x="13" y="12">機器提供</tspan></text></g></svg>