<svg height="92" width="122" xmlns="http://www.w3.org/2000/svg"><filter id="a" height="130%" width="121.8%" x="-10.9%" y="-15%"><feOffset in="SourceAlpha" result="shadowOffsetOuter1"/><feGaussianBlur in="shadowOffsetOuter1" result="shadowBlurOuter1" stdDeviation="3"/><feColorMatrix in="shadowBlurOuter1" result="shadowMatrixOuter1" values="0 0 0 0 0 0 0 0 0 0 0 0 0 0 0 0 0 0 0.2 0"/><feMerge><feMergeNode in="shadowMatrixOuter1"/><feMergeNode in="SourceGraphic"/></feMerge></filter><g fill="none" fill-rule="evenodd" filter="url(#a)" transform="translate(6 6)"><path d="M0 0h110v80H0z" fill="#fff" fill-opacity=".85"/><g fill="#ff8200"><path d="M89.432 65.948c-2.904-.002-4.269-2.164-4.276-4.192.007-2.124 1.561-4.18 4.632-4.166 1.04-.014 2.314.471 2.878 1.123V54.33h1.89v9.81c.005.516.07 1.05.11 1.563h-1.808c-.057-.2-.238-.735-.247-1.097-.648.913-1.906 1.34-3.18 1.343zm.438-7.043c-1.878.011-2.816 1.64-2.822 2.85.006 1.215 1.059 2.735 2.96 2.741 1.593-.006 2.645-1.642 2.658-2.74-.013-1.088-1.18-2.84-2.796-2.85zM56.628 57.59c3.016.126 5.154 1.787 5.152 4.193.002 2.47-1.939 4.171-5.152 4.165-3.24.006-5.386-1.704-5.152-4.165.35-4.15 5.077-4.198 5.152-4.193zm0 7.015c1.79.009 2.958-1.586 2.96-2.822-.002-1.28-1.079-2.8-2.96-2.795v-.028.028c-1.909-.006-2.986 1.515-2.987 2.795.001 1.236 1.16 2.83 2.987 2.822zm5.865 1.097h2.22V54.329h-2.22zM77.51 60.96c.048-1.14 1.963-1.979 2.905-1.974 1.442-.005 1.771 1.122 1.808 1.974v4.74h1.864v-5.124a4.396 4.396 0 0 0-.192-1.26c-.36-1.157-2.219-1.913-3.206-1.92-1.495.007-2.54.656-3.152 1.371l-.027-.027v-1.206h-1.919v8.167h1.919zm-5.07 3.7c-.67.915-2.315 1.293-3.646 1.288-1.859.005-3.248-.842-3.26-2.385.012-.561.332-1.893 2.137-2.493 1.171-.428 3.367-.47 4.55-.44V59.893c0-.532-1.003-.975-2.056-.986-1.421.01-2.12.783-2.083 1.15H66c.032-.992.558-1.608 1.343-1.973.81-.375 1.863-.498 2.933-.493 1.98-.005 3.977.57 3.973 2.96v4.302c.02.395.103.625.137.85H72.55a6.146 6.146 0 0 1-.11-1.042zm-.22-2.44v-.219c-2.843-.298-4.405.417-4.412 1.233-.042 1.091.788 1.206 1.617 1.206 1.637 0 2.74-.583 2.795-2.22zm-29.323-1.37v4.85h-2.247V54.33h5.536c2.448.025 4.775.658 4.768 2.987.007 1.47-.322 2.678-2.083 2.987v.027c1.506.28 1.309 1.127 1.563 2.686.14.727.247 2.066.822 2.686h-2.33c-.25-1.006-.39-2.025-.52-3.042-.084-.628-.75-1.787-1.754-1.809zm0-4.85v3.233h3.782c1.347-.005 2.136-.548 2.138-1.562-.002-1-.791-1.658-2.138-1.672zM15 54.437h20.499c2.136.096 3.673 1.297 3.81 3.645-.07 2.132-1.42 3.522-3.81 3.618H23.057v.657h16.114v1.233H21.824v-3.124h13.648c1.67-.054 2.484-.835 2.603-2.384-.169-1.666-1.114-2.34-2.603-2.411H16.233v9.975H15z"/><path d="M18.426 63.674v1.836h-1.234v-9.016h18.39v3.179H22.29c-1.591.066-2.989.723-3.015 2.603.306 1.59 1.4 2.108 3.015 2.165h16.799v1.233H22.262c-1.473-.057-3.134-.542-3.836-2zm0-3.18c.76-1.47 2.306-1.989 3.836-2.055h12.086v-.712H18.426z"/></g><g fill="#d92128"><path d="M89.264 43.164h.501c1.765 0 1.964-1.214 1.964-3.765 0-2.548-.199-3.764-1.964-3.764h-.501zm-3.218-10.312h3.993c1.623 0 2.873.559 3.716 1.704.82 1.114 1.235 2.759 1.235 4.843 0 2.085-.415 3.73-1.235 4.843-.843 1.146-2.093 1.705-3.716 1.705h-3.993zm-22.439 0v9.84c.065 1.18.532 2.086 1.388 2.692.779.552 1.84.832 3.153.832s2.374-.28 3.152-.832c.856-.606 1.323-1.513 1.388-2.694v-9.838h-3.375v9.662c-.043.781-.745.899-1.165.899-.421 0-1.123-.118-1.166-.902v-9.659zM83.82 45.946v-9.952c-.065-1.18-.532-2.085-1.388-2.691-.779-.552-1.84-.832-3.153-.832s-2.374.28-3.152.832c-.856.606-1.323 1.512-1.388 2.693v9.95h3.375v-9.774c.042-.781.745-.899 1.165-.899.421 0 1.123.118 1.166.902v9.771zm-30.251-6.715c0 1.372.218 3.195 1.525 3.195 1.306 0 1.524-1.823 1.524-3.195 0-1.372-.218-3.195-1.524-3.195-1.307 0-1.525 1.823-1.525 3.195"/><path d="M55.092 35.156a4.075 4.075 0 1 0 0 8.15 4.075 4.075 0 0 0 0-8.15m0-3.156c3.988 0 7.231 3.244 7.231 7.23 0 3.988-3.243 7.232-7.23 7.232-3.988 0-7.232-3.244-7.232-7.231 0-3.987 3.244-7.231 7.231-7.231m-11.414.471c-1.457.125-2.53.68-3.187 1.653-.608.897-.661 1.855-.656 2.225.027 1.963 1.554 3.18 2.782 4.16.817.651 1.523 1.214 1.556 1.822.014.254-.062.458-.228.605-.369.327-1.134.324-1.678.221-.756-.143-1.485-.44-2.293-.938l-.027-.017v3.146l.01.005c.817.459 2.07.74 3.348.75 1.286.012 2.302-.363 3.021-1.113.682-.712 1.048-1.744 1.003-2.83-.09-2.18-1.63-3.36-2.868-4.31-.735-.564-1.37-1.051-1.434-1.593-.031-.274.031-.494.186-.656.21-.22.577-.312 1.058-.27.746.066 1.399.285 2.31.611l.051.022.016.007v-2.956l-.055-.027c-1.016-.415-2.024-.594-2.915-.517m-3.91.381l-3.142 9.252-.001 3.842H33.28v-3.835l-3.142-9.259h3.398l1.416 4.975 1.416-4.975zm-14.852 9.771c.187.46.605.633.941.633.336 0 .755-.173.942-.633.186-.46.269-1.478.269-3.37 0-1.89-.083-2.908-.27-3.369a1.004 1.004 0 0 0-.94-.633c-.337 0-.755.173-.942.633-.187.46-.27 1.478-.27 3.37 0 1.89.083 2.909.27 3.37m-3.481-3.37c0-4.755 1.322-6.783 4.422-6.783 3.1 0 4.423 2.028 4.423 6.783 0 4.754-1.323 6.782-4.423 6.782s-4.422-2.028-4.422-6.782m-1.21-6.492v9.028c0 1.495-.422 2.658-1.262 3.364-.9.756-2.498 1.185-3.963.655v-2.615c.844.116 1.362.113 1.716-.214.24-.223.358-.6.358-1.154v-9.064z"/></g><text fill="#333" font-family="HiraginoSans-W5, Hiragino Sans" font-size="10" font-weight="400"><tspan x="15" y="15">機器提供</tspan></text></g></svg>