<svg height="67" width="117" xmlns="http://www.w3.org/2000/svg"><filter id="a" height="143.6%" width="122.9%" x="-11.4%" y="-21.8%"><feOffset in="SourceAlpha" result="shadowOffsetOuter1"/><feGaussianBlur in="shadowOffsetOuter1" result="shadowBlurOuter1" stdDeviation="3"/><feColorMatrix in="shadowBlurOuter1" result="shadowMatrixOuter1" values="0 0 0 0 0 0 0 0 0 0 0 0 0 0 0 0 0 0 0.2 0"/><feMerge><feMergeNode in="shadowMatrixOuter1"/><feMergeNode in="SourceGraphic"/></feMerge></filter><g fill="none" fill-rule="evenodd" filter="url(#a)" transform="translate(6 6)"><path d="M0 0h105v55H0z" fill="#fff" fill-opacity=".9"/><g fill="#ff8200"><path d="M87.432 40.953c-2.904-.003-4.269-1.985-4.276-3.844.007-1.947 1.561-3.83 4.632-3.818 1.04-.013 2.314.432 2.878 1.03V30.3h1.89v8.994c.005.472.07.962.11 1.432h-1.808c-.057-.184-.238-.674-.247-1.005-.648.836-1.906 1.228-3.18 1.23zm.438-6.457c-1.878.01-2.816 1.503-2.822 2.613.006 1.113 1.059 2.507 2.96 2.512 1.593-.005 2.645-1.504 2.658-2.512-.013-.997-1.18-2.602-2.796-2.613zm-33.242-1.205c3.016.115 5.154 1.638 5.152 3.843.002 2.264-1.939 3.824-5.152 3.819-3.24.005-5.386-1.563-5.152-3.819.35-3.803 5.077-3.848 5.152-3.843zm0 6.43c1.79.008 2.958-1.453 2.96-2.587-.002-1.173-1.079-2.567-2.96-2.562v-.025.025c-1.909-.005-2.986 1.39-2.987 2.562.001 1.134 1.16 2.595 2.987 2.588zm5.865 1.005h2.22V30.301h-2.22zm15.018-4.345c.048-1.045 1.963-1.814 2.905-1.81 1.442-.004 1.771 1.029 1.808 1.81v4.345h1.864V36.03a3.719 3.719 0 0 0-.192-1.156c-.36-1.06-2.219-1.753-3.206-1.758-1.495.005-2.54.6-3.152 1.256l-.027-.025V33.24h-1.919v7.486h1.919zm-5.07 3.39c-.67.84-2.315 1.187-3.646 1.182-1.859.005-3.248-.771-3.26-2.186.012-.515.332-1.735 2.137-2.286 1.171-.392 3.367-.43 4.55-.402v-.678c0-.487-1.003-.894-2.056-.904-1.421.01-2.12.718-2.083 1.055H64c.032-.91.558-1.475 1.343-1.81.81-.343 1.863-.456 2.933-.451 1.98-.005 3.977.522 3.973 2.713v3.944c.02.362.103.573.137.778H70.55a5.182 5.182 0 0 1-.11-.954zm-.22-2.235v-.2c-2.843-.274-4.405.381-4.412 1.13-.042 1 .788 1.105 1.617 1.105 1.637 0 2.74-.535 2.795-2.035zM40.898 36.28v4.447h-2.247V30.302h5.536c2.448.022 4.775.602 4.768 2.738.007 1.346-.322 2.454-2.083 2.738v.025c1.506.256 1.309 1.033 1.563 2.462.14.666.247 1.894.822 2.462h-2.33c-.25-.922-.39-1.857-.52-2.789-.084-.575-.75-1.638-1.754-1.658zm0-4.446v2.964h3.782c1.347-.005 2.136-.502 2.138-1.432-.002-.917-.791-1.52-2.138-1.532zM13 30.402h20.499c2.136.088 3.673 1.188 3.81 3.34-.07 1.955-1.42 3.229-3.81 3.317H21.057v.603h16.114v1.13H19.824v-2.864h13.648c1.67-.05 2.484-.766 2.603-2.185-.169-1.527-1.114-2.145-2.603-2.21H14.233v9.144H13z"/><path d="M16.426 38.868v1.683h-1.234v-8.265h18.39V35.2H20.29c-1.591.06-2.989.663-3.015 2.387.306 1.457 1.4 1.932 3.015 1.984h16.799v1.13H20.262c-1.473-.052-3.134-.497-3.836-1.833zm0-2.915c.76-1.348 2.306-1.823 3.836-1.884h12.086v-.653H16.426z"/></g><text fill="#333" font-family="HiraginoSans-W5, Hiragino Sans" font-size="10" font-weight="400"><tspan x="13" y="14">機器提供</tspan></text></g></svg>