<svg height="90" width="296" xmlns="http://www.w3.org/2000/svg"><g fill="#fff" fill-rule="evenodd"><path d="M67.802 22.92v48.138c-2.418-2.213-5.89-3.614-9.758-3.614-7.289 0-13.217 4.947-13.217 11.029 0 6.081 5.928 11.026 13.217 11.026 7.182 0 13.032-4.804 13.203-10.762h.015V22.92zm-44.826 0v48.137c-2.42-2.212-5.891-3.613-9.759-3.613C5.928 67.444 0 72.39 0 78.473c0 6.081 5.928 11.026 13.217 11.026 7.182 0 13.032-4.804 13.204-10.762h.016V22.92z"/><path d="M47.12 0L23.081 18.265l-.106.08v20.118L47.12 20.118l24.143 18.345V18.345zm2.546 56.065a1.257 1.257 0 1 1 0-2.514 1.257 1.257 0 1 1 0 2.514zm-7.717 6.864h10.343v-16.24H41.95v16.24zm66.055-24h-5.584v3.78zM84.65 50.515l9.665-6.543v-5.043H84.65v-8.106h9.665v-6.424h8.104v6.424h15.73c1.119 0 2.08.382 2.88 1.142.76.84 1.14 1.8 1.14 2.88 0 1.243-1.36 2.703-4.081 4.383l-2.942 1.923c1.12-.042 2.14 0 3.063.117 2.478.444 3.741 1.944 3.78 4.503v4.204c-.039 2.44 2.5 3.34 7.625 2.699v8.166c-10.566.48-15.809-2.103-15.73-7.743v-4.623c0-2.963-2.28-3.603-6.842-1.92h-.181l-4.442 2.94v11.285h-8.104v-6.782L84.65 60.84zm72.723-25.933l-3.902 10.985c.64-.28 1.201-.42 1.68-.42h2.343c2.32 0 4.321.69 6.003 2.07 1.68 1.38 2.54 3.354 2.582 5.914l-.06 4.26c-.241 2.243.098 3.705 1.022 4.382.876.684 2.079 1.064 3.598 1.143h8.045v7.802H168.6c-3.322-.16-5.923-1.288-7.804-3.39-1.881-2.101-2.821-4.854-2.821-8.253v-3.003c0-1.88-.922-2.841-2.762-2.88h-1.14c-1.962.039-3.702 1.94-5.223 5.701l-4.202 11.946h-8.645l12.726-36.257h8.645zm43.733 22.39h19.99v-7.743h-19.99zm-5.103 4.262c7.364 4.243 15.768 4.864 25.215 1.862l4.201 7.263c-12.246 5.202-23.452 4.563-33.617-1.921zm6.304-27.374l-1.74 4.082h12.365v7.745h-15.127l-4.562 11.226h-8.886l4.743-11.226h-8.164v-7.745h10.926l1.5-4.082zm51.811 27.075c.76-1.082 1.33-2.313 1.71-3.692.38-1.38.673-2.89.872-4.531l.24-1.742h-4.622v11.404c.719-.28 1.32-.76 1.8-1.439zm-11.826-9.965c-.6.038-1.12.419-1.56 1.141a8.797 8.797 0 0 0-.992 2.279 9.045 9.045 0 0 0-.328 2.401c0 .842.108 1.661.328 2.461.22.801.55 1.561.991 2.284.441.718.96 1.08 1.561 1.08h2.7V40.97zM252.32 24.4v8.464h5.762l.96-8.223h7.266l-.962 8.223.36.06c2.48.083 4.522.96 6.122 2.643 1.602 1.68 2.752 3.594 3.453 5.733.699 2.142 1.05 5.154 1.05 9.033l-7.444-.12c0-2.52-.11-4.282-.33-5.28-.218-1-.55-1.901-.99-2.703-.442-.801-.96-1.222-1.562-1.26h-1.738l-.362 2.46c-.36 2.843-1.021 5.524-1.982 8.045-1 2.521-2.42 4.653-4.26 6.394-1.843 1.74-3.783 2.69-5.822 2.85h-9.247c-2.483.042-4.532-.72-6.154-2.28-1.62-1.561-2.77-3.343-3.452-5.343-.68-2-1.02-4.082-1.02-6.244 0-2.08.35-4.122 1.051-6.122.7-2 1.85-3.782 3.451-5.344 1.603-1.561 3.641-2.379 6.124-2.462h.36c.2-.038.8-.06 1.801-.06h.24V24.4zm34.157 24.493h8.105V21.879h-8.105zm9.005 8.585c0 1.12-.482 2.081-1.442 2.88-.96.8-2.122 1.203-3.482 1.203s-2.521-.402-3.482-1.202c-.96-.8-1.44-1.76-1.44-2.881 0-1.16.48-2.14 1.44-2.94.96-.802 2.122-1.203 3.482-1.203s2.521.401 3.482 1.202c.96.801 1.442 1.78 1.442 2.94zM96.363 82.52c-.212 1.492-.773 2.252-1.424 2.252-.44 0-.894-.306-1.334-.947-.824-1.185-.905-3.503-.905-4.714v-.774h-7.885v-1.172h9.258v1.946c0 1.302.013 2.914.533 3.874.08.16.146.241.199.241.173 0 .28-.546.465-1.906zm-4.794 2.277s-1.053-1.158-2.732-2.464c-1.025.865-2.465 1.852-4.01 2.439l-.973-1.159c1.613-.533 3.053-1.306 3.97-2.066-.77-.612-2.01-1.332-2.955-1.826l1.104-.89c.853.519 1.919 1.185 2.825 1.85 1.185-1.09 1.678-2.145 1.678-2.145l1.185.692s-.573 1.041-1.838 2.24c1.413 1.052 2.652 2.117 2.652 2.131zm-5.382-8.471v-.628c-.853.853-1.492 1.268-1.492 1.268l-1.185-1.16s2.144-.973 3.515-3.598l1.491.214a3.83 3.83 0 0 1-.504.76h7.46v1.186H87.32a5.45 5.45 0 0 1-.732.84h7.979v1.118zm19.64 7.993v-1.186h2.639v-2.065h-2.173v-1.225h2.173v-1.335h1.372v1.335h1.998v1.225h-1.998v2.065h2.783v1.2l-6.793-.014zm-2.357-4.489h.933v-1.28h-.933zm0-2.265h.933v-1.173h-.933zm-1.971 2.265h.906v-1.28h-.906zm0-2.265h.906v-1.173h-.906zm10.363 1.33c-1.066-.344-1.865-.89-2.583-1.398a10.921 10.921 0 0 1-3.145 1.438l-.587-1.157v3.064h-1.93v.986h2.13v1.052h-2.13v1.903h-1.373V82.88h-2.225v-1.052h2.225v-.986h-1.878v-5.448h1.878v-.986h-2.052v-1.053h2.052v-1.16h1.372v1.16h2.052v1.053h-2.052v.986h1.931v2.118c1.026-.229 1.812-.427 2.572-.868-1.144-1.037-1.638-1.985-1.638-1.985l1.158-.653s.547 1.026 1.652 1.975c.746-.629 1.266-1.453 1.426-2.12h-4.783v-1.197h6.248v.959c-.2 1.026-.826 2.117-1.826 3.037.667.385 1.346.613 2.265.798l-.76 1.437zm15.991-3.116c-.945-.2-2.197-.28-3.397-.28-1.198 0-2.358.08-3.143.228v-1.4a37.887 37.887 0 0 1 3.49-.174c1.04 0 2.105.053 3.09.202zm.6 7.538c-.893.175-1.918.242-2.877.242-.854 0-1.665-.04-2.292-.173-1.145-.228-2.411-1.065-2.411-2.304 0-.389.12-.814.4-1.266l1.305.32c-.214.253-.332.533-.332.786 0 1.093 1.598 1.238 2.903 1.238 1.013 0 2.212-.106 3.33-.348l-.025 1.505zm-10.657.935a25.615 25.615 0 0 1-.266-3.797c0-2.612.32-5.194.653-7.445l1.505.17a39.863 39.863 0 0 0-.693 7.194c0 1.374.095 2.677.307 3.743zm26.529-6.38c-1.625 2.517-4.581 5.712-10.23 6.366V73.102l1.598.013c-.013.772-.12 7.033-.146 9.243 3.356-.583 6.087-2.941 7.74-5.954l1.038 1.467zm4.934 4.86c5.928-.89 8.486-3.688 9.618-8.326l1.346.841c-.826 3.051-2.398 7.406-10.044 8.899l-.92-1.413zm3.705-5.383c-1.04-1.09-2.838-2.208-3.891-2.755l1.026-1.094c.905.427 2.877 1.521 3.916 2.507zm11.516 6.103c2.73-.387 4.754-1.467 6.193-2.852-1.066-.919-2.185-1.676-3.382-2.41l.931-.945c.867.48 2.252 1.346 3.424 2.277a9.638 9.638 0 0 0 1.8-4.049h-4.758a16.27 16.27 0 0 1-3.968 4.049l-1.214-.998c2.572-1.439 4.49-4.063 5.13-6.034l1.493.292a13.54 13.54 0 0 1-.681 1.453c1.52 0 5.184-.016 5.61-.016-.335 3.797-2.547 9.074-9.46 10.366zm27.607-5.315c-1.04 2.306-3.078 5.37-6.447 5.916.014-1.839.014-3.693.014-5.543v-5.554h1.478c-.013 1.158-.04 6.885-.08 8.978 1.918-.878 3.157-3.023 3.931-4.998zm-12.695 5.249c2.664-1.984 3.09-5.317 3.09-8.392 0-.682-.01-1.332-.039-1.973l1.506.013v.905c0 4.812-.454 7.729-3.09 10.26zm18.51 1.386c-.944-1.439-1.864-2.345-2.838-3.013l1-.997c.919.677 2.051 1.584 3.01 2.916zm14.222-4.05v1.864c0 1.64-.24 2.13-3.37 2.13l-.706-1.342c2.44 0 2.677-.043 2.677-.749v-1.904h-5.86v-1.264h5.86V77.43h-4.783v-1.25h4.783v-2.078a60.183 60.183 0 0 1-4.396.146l-.504-1.278c6.498 0 9.538-.722 9.538-.722l.876 1.119s-1.332.373-4.115.639v2.174h4.023v1.25h-4.023v2.027h5.102v1.264h-5.102zm14.872 3.597v-1.186h2.638v-2.065h-2.172v-1.225h2.172v-1.335h1.372v1.335h1.998v1.225h-1.998v2.065h2.784v1.2zm-2.358-4.489h.935v-1.28h-.935zm0-2.265h.935v-1.173h-.935zm-1.97 2.265h.906v-1.28h-.907v1.28zm0-2.265h.906v-1.173h-.907v1.173zm10.362 1.33c-1.066-.344-1.864-.89-2.582-1.398a10.946 10.946 0 0 1-3.146 1.438l-.586-1.157v3.064h-1.931v.986h2.131v1.052h-2.131v1.903h-1.372V82.88h-2.226v-1.052h2.226v-.986h-1.879v-5.448h1.879v-.986h-2.052v-1.053h2.052v-1.16h1.372v1.16h2.052v1.053h-2.052v.986h1.93v2.118c1.027-.229 1.812-.427 2.572-.868-1.143-1.037-1.638-1.985-1.638-1.985l1.159-.653s.546 1.026 1.652 1.975c.746-.629 1.265-1.453 1.426-2.12h-4.783v-1.197h6.247v.959c-.2 1.026-.825 2.117-1.826 3.037.668.385 1.347.613 2.266.798zm15.992-3.116c-.945-.2-2.198-.28-3.397-.28-1.198 0-2.358.08-3.144.228v-1.4a37.887 37.887 0 0 1 3.49-.174c1.041 0 2.106.053 3.09.202l-.04 1.424zm.6 7.538c-.894.175-1.917.242-2.877.242-.854 0-1.664-.04-2.293-.173-1.144-.228-2.41-1.065-2.41-2.304 0-.389.12-.814.4-1.266l1.304.32c-.213.253-.331.533-.331.786 0 1.093 1.598 1.238 2.903 1.238 1.014 0 2.211-.106 3.33-.348zm-10.657.935a25.615 25.615 0 0 1-.266-3.797c0-2.612.32-5.194.653-7.445l1.504.17a39.863 39.863 0 0 0-.693 7.194c0 1.374.096 2.677.307 3.743zm16.058-.8c2.731-.387 4.755-1.467 6.194-2.852-1.066-.919-2.185-1.676-3.382-2.41l.931-.945c.867.48 2.251 1.346 3.424 2.277a9.638 9.638 0 0 0 1.8-4.049h-4.759a16.27 16.27 0 0 1-3.967 4.049l-1.214-.998c2.572-1.439 4.49-4.063 5.129-6.034l1.494.292c-.188.478-.416.958-.682 1.453 1.52 0 5.184-.016 5.611-.016-.335 3.797-2.547 9.074-9.46 10.366zm25.104-1.171a26.93 26.93 0 0 0-2.971-2.731 15.684 15.684 0 0 1-5.914 4.875l-1.24-1.066a14.67 14.67 0 0 0 5.929-4.73c-1.294-.919-2.624-1.732-3.877-2.33l.96-1.038c1.025.464 2.372 1.276 3.715 2.197.827-1.318 1.52-2.823 2.08-4.555l1.49.546c-.584 1.519-1.292 3.223-2.318 4.888 1.307.971 2.505 1.959 3.25 2.731z"/></g></svg>