<svg height="90" width="297" xmlns="http://www.w3.org/2000/svg"><g fill="none" fill-rule="evenodd"><g fill="#ff5a00"><path d="M67.599 22.85v47.995c-2.411-2.208-5.874-3.604-9.73-3.604-7.266 0-13.177 4.932-13.177 10.994 0 6.063 5.91 10.996 13.177 10.996 7.16 0 12.993-4.79 13.164-10.73h.015V22.849h-3.45zm-44.692 0v47.994c-2.413-2.207-5.874-3.603-9.73-3.603C5.911 67.24 0 72.173 0 78.235c0 6.063 5.91 10.996 13.177 10.996 7.16 0 12.993-4.79 13.165-10.73h.015V22.849h-3.45z"/><path d="M46.978 0L23.012 18.21l-.105.08v20.058l24.07-18.29 24.071 18.29V18.289zm2.538 55.897a1.255 1.255 0 0 1-1.255-1.254 1.255 1.255 0 0 1 2.509 0c0 .692-.562 1.254-1.254 1.254zm-7.693 6.842h10.312V46.547H41.823V62.74z"/></g><path d="M107.679 38.811h-5.567v3.771zM84.397 50.363l9.635-6.525v-5.027h-9.635v-8.08h9.635v-6.404h8.08v6.405h15.682c1.116 0 2.074.379 2.873 1.137.757.838 1.137 1.795 1.137 2.872 0 1.238-1.358 2.693-4.07 4.369l-2.933 1.916c1.116-.04 2.134 0 3.053.12 2.472.439 3.73 1.936 3.77 4.488v4.19c-.04 2.434 2.492 3.332 7.601 2.693v8.14c-10.534.479-15.761-2.095-15.682-7.721v-4.609c0-2.952-2.274-3.59-6.822-1.915h-.18l-4.43 2.933v11.252h-8.079v-6.763l-9.635 6.822zM156.9 24.507l-3.89 10.952c.638-.277 1.197-.418 1.675-.418h2.336c2.312 0 4.308.688 5.985 2.065 1.675 1.375 2.532 3.342 2.573 5.895l-.059 4.25c-.24 2.234.098 3.691 1.018 4.368.875.68 2.073 1.059 3.588 1.137h8.02v7.78h-10.054c-3.312-.158-5.906-1.286-7.78-3.38-1.876-2.095-2.813-4.838-2.813-8.23v-2.993c0-1.874-.92-2.832-2.754-2.872h-1.137c-1.956.04-3.69 1.936-5.207 5.685l-4.189 11.911h-8.619l12.688-36.15h8.62zm43.602 22.325h19.93V39.11h-19.93v7.72zm-5.088 4.249c7.341 4.23 15.72 4.847 25.137 1.855l4.19 7.24c-12.209 5.189-23.381 4.551-33.517-1.913zm6.284-27.292l-1.734 4.07h12.328v7.72H197.21l-4.547 11.191h-8.86l4.73-11.192h-8.14v-7.72h10.892l1.496-4.069h8.918zm51.656 26.992c.758-1.076 1.326-2.304 1.705-3.681.38-1.376.67-2.882.87-4.517l.238-1.737h-4.607v11.372c.716-.28 1.315-.757 1.794-1.437zm-11.79-9.935c-.599.04-1.117.419-1.556 1.137a8.818 8.818 0 0 0-.989 2.275 9.002 9.002 0 0 0-.327 2.393c0 .839.108 1.656.327 2.454.22.8.549 1.557.989 2.275s.957 1.077 1.556 1.077h2.692V40.846zm9.996-16.518v8.438h5.744l.957-8.2h7.244l-.959 8.2.359.06c2.473.081 4.508.958 6.104 2.633 1.597 1.676 2.743 3.582 3.442 5.716.697 2.136 1.047 5.138 1.047 9.008l-7.422-.12c0-2.513-.11-4.27-.328-5.267a10.002 10.002 0 0 0-.987-2.693c-.44-.798-.958-1.216-1.557-1.257h-1.733l-.362 2.454c-.359 2.835-1.018 5.506-1.975 8.02-.998 2.513-2.413 4.639-4.248 6.374-1.837 1.736-3.772 2.685-5.805 2.842h-9.219c-2.475.041-4.518-.718-6.135-2.274-1.616-1.555-2.762-3.33-3.441-5.326a19.207 19.207 0 0 1-1.017-6.225c0-2.074.349-4.108 1.047-6.104s1.845-3.77 3.44-5.327c1.6-1.556 3.631-2.373 6.106-2.454h.36c.2-.04.797-.06 1.795-.06h.239v-8.438zm34.054 24.419h8.08V21.814h-8.08zm8.978 8.559c0 1.117-.48 2.075-1.438 2.87-.958.798-2.115 1.198-3.471 1.198-1.358 0-2.514-.4-3.471-1.197-.958-.796-1.436-1.754-1.436-2.871 0-1.157.478-2.133 1.436-2.933.957-.798 2.113-1.198 3.47-1.198s2.514.4 3.472 1.198c.958.8 1.438 1.776 1.438 2.933z" fill="#666464"/><path d="M96.073 82.271c-.211 1.487-.77 2.245-1.42 2.245-.438 0-.89-.305-1.33-.944-.82-1.182-.902-3.491-.902-4.7v-.77H84.56v-1.17h9.23v1.94c0 1.3.013 2.908.531 3.865.08.158.146.238.199.238.173 0 .28-.544.464-1.9l1.09 1.196zm-4.78 2.27s-1.05-1.155-2.724-2.456c-1.021.863-2.457 1.846-3.996 2.43l-.97-1.154c1.607-.532 3.042-1.303 3.958-2.059-.77-.611-2.005-1.328-2.947-1.82l1.1-.89c.85.518 1.913 1.182 2.817 1.846 1.182-1.088 1.673-2.138 1.673-2.138l1.182.691s-.572 1.036-1.833 2.232c1.408 1.048 2.644 2.11 2.644 2.124zm-5.365-8.446v-.624c-.85.85-1.487 1.263-1.487 1.263l-1.182-1.157s2.138-.969 3.504-3.585l1.487.212a3.85 3.85 0 0 1-.502.757h7.437v1.182h-8.128a5.317 5.317 0 0 1-.73.837h7.954v1.115zm19.581 7.969v-1.182h2.63v-2.059h-2.166v-1.221h2.167v-1.328h1.368v1.328h1.992v1.221h-1.992v2.059h2.775v1.196zm-2.35-4.475h.93v-1.276h-.93zm0-2.259h.93v-1.169h-.93v1.17zm-1.966 2.259h.904v-1.276h-.904zm0-2.259h.904v-1.169h-.904v1.17zm10.332 1.328c-1.062-.345-1.859-.89-2.575-1.394-.85.571-1.94 1.103-3.135 1.434l-.585-1.155v3.055h-1.925v.983h2.125v1.048h-2.125v1.9h-1.368v-1.9h-2.219v-1.048h2.219v-.983h-1.873v-5.432h1.873v-.983H99.89v-1.05h2.046v-1.155h1.368v1.155h2.046v1.05h-2.046v.983h1.925v2.112c1.023-.226 1.806-.425 2.564-.864-1.141-1.036-1.633-1.978-1.633-1.978l1.155-.651s.544 1.023 1.647 1.966c.743-.626 1.261-1.449 1.421-2.113h-4.768v-1.194h6.228v.956c-.198 1.023-.823 2.111-1.82 3.028.665.384 1.342.611 2.259.797l-.758 1.433zm15.944-3.107c-.942-.199-2.191-.278-3.387-.278-1.195 0-2.35.08-3.134.224v-1.393a37.361 37.361 0 0 1 3.48-.173c1.036 0 2.099.052 3.08.2l-.04 1.42zm.598 7.517c-.89.173-1.912.24-2.868.24-.852 0-1.66-.04-2.286-.174-1.14-.225-2.403-1.062-2.403-2.297 0-.386.12-.81.398-1.261l1.301.318c-.213.252-.33.532-.33.784 0 1.089 1.593 1.235 2.894 1.235 1.01 0 2.205-.107 3.32-.346l-.026 1.5zm-10.625.929a25.521 25.521 0 0 1-.265-3.784c0-2.603.319-5.18.65-7.425l1.5.174a39.732 39.732 0 0 0-.69 7.171c0 1.368.095 2.67.306 3.732l-1.5.132zm26.45-6.36c-1.621 2.51-4.568 5.696-10.2 6.347V72.882l1.593.013c-.013.77-.12 7.011-.145 9.216 3.346-.583 6.068-2.934 7.715-5.936l1.036 1.461zm4.919 4.846c5.909-.89 8.46-3.679 9.588-8.3l1.342.837c-.823 3.041-2.39 7.384-10.014 8.872zm3.693-5.365c-1.037-1.089-2.83-2.204-3.88-2.749l1.024-1.09c.902.426 2.869 1.515 3.904 2.498l-1.048 1.34zm11.481 6.083c2.723-.385 4.74-1.462 6.175-2.842-1.063-.917-2.178-1.673-3.372-2.404l.929-.943a26.79 26.79 0 0 1 3.413 2.271 9.62 9.62 0 0 0 1.795-4.038h-4.744a16.247 16.247 0 0 1-3.956 4.038l-1.21-.996c2.563-1.434 4.476-4.05 5.113-6.017l1.49.292c-.188.479-.415.957-.68 1.449 1.515 0 5.169-.014 5.594-.014-.334 3.785-2.54 9.045-9.432 10.333l-1.115-1.13zm27.525-5.3c-1.037 2.298-3.069 5.352-6.429 5.897.014-1.833.014-3.679.014-5.524v-5.538h1.475c-.013 1.155-.041 6.866-.081 8.951 1.912-.877 3.148-3.015 3.92-4.981l1.1 1.196zm-12.657 5.233c2.656-1.978 3.08-5.299 3.08-8.366a44.5 44.5 0 0 0-.038-1.967l1.5.014v.903c0 4.795-.452 7.704-3.08 10.226zm18.454 1.382c-.941-1.435-1.859-2.338-2.83-3.002l.997-.996c.916.678 2.046 1.58 3.002 2.908l-1.17 1.09zm14.18-4.038v1.86c0 1.633-.24 2.124-3.36 2.124l-.704-1.34c2.431 0 2.668-.04 2.668-.744v-1.9h-5.842v-1.261h5.842v-2.02h-4.768V75.95h4.768v-2.071a59.933 59.933 0 0 1-4.382.146l-.503-1.276c6.479 0 9.51-.716 9.51-.716l.873 1.115s-1.328.372-4.103.637v2.165h4.011v1.249h-4.01v2.019h5.086v1.26h-5.087zm14.827 3.586v-1.182h2.63v-2.059h-2.166v-1.221h2.166v-1.328h1.368v1.328h1.992v1.221h-1.992v2.059h2.775v1.196zm-2.351-4.475h.932v-1.276h-.932zm0-2.259h.932v-1.169h-.932v1.17zm-1.965 2.259h.903v-1.276h-.903zm0-2.259h.903v-1.169h-.903v1.17zm10.331 1.328c-1.062-.345-1.858-.89-2.574-1.394a10.982 10.982 0 0 1-3.136 1.434l-.585-1.155v3.055h-1.925v.983h2.125v1.048h-2.125v1.9h-1.368v-1.9h-2.219v-1.048h2.22v-.983h-1.874v-5.432h1.873v-.983h-2.046v-1.05h2.046v-1.155h1.368v1.155h2.046v1.05h-2.046v.983h1.925v2.112c1.023-.226 1.806-.425 2.564-.864-1.14-1.036-1.633-1.978-1.633-1.978l1.155-.651s.545 1.023 1.647 1.966c.743-.626 1.261-1.449 1.422-2.113h-4.769v-1.194h6.229v.956c-.2 1.023-.823 2.111-1.82 3.028.665.384 1.341.611 2.258.797zm15.944-3.107c-.942-.199-2.19-.278-3.387-.278-1.194 0-2.35.08-3.134.224v-1.393a37.361 37.361 0 0 1 3.48-.173c1.037 0 2.099.052 3.08.2l-.04 1.42zm.599 7.517c-.891.173-1.912.24-2.87.24-.85 0-1.658-.04-2.285-.174-1.14-.225-2.403-1.062-2.403-2.297 0-.386.12-.81.398-1.261l1.301.318c-.212.252-.33.532-.33.784 0 1.089 1.593 1.235 2.894 1.235 1.012 0 2.205-.107 3.32-.346l-.025 1.5zm-10.626.929a25.521 25.521 0 0 1-.265-3.784c0-2.603.32-5.18.651-7.425l1.5.174a39.732 39.732 0 0 0-.691 7.171c0 1.368.096 2.67.306 3.732l-1.5.132zm16.01-.796c2.723-.385 4.74-1.462 6.175-2.842-1.062-.917-2.178-1.673-3.371-2.404l.928-.943a26.79 26.79 0 0 1 3.414 2.271 9.62 9.62 0 0 0 1.794-4.038h-4.744a16.247 16.247 0 0 1-3.956 4.038l-1.21-.996c2.564-1.434 4.476-4.05 5.113-6.017l1.49.292c-.187.479-.414.957-.68 1.449 1.516 0 5.169-.014 5.595-.014-.335 3.785-2.54 9.045-9.432 10.333l-1.115-1.13zm25.03-1.169a26.976 26.976 0 0 0-2.963-2.723 15.613 15.613 0 0 1-5.897 4.861l-1.235-1.063a14.623 14.623 0 0 0 5.91-4.714c-1.29-.917-2.616-1.727-3.865-2.324l.957-1.036c1.023.464 2.365 1.276 3.704 2.192.824-1.315 1.515-2.816 2.074-4.543l1.486.545c-.583 1.514-1.288 3.214-2.311 4.874 1.302.969 2.497 1.952 3.24 2.722zm15.89 1.7c-1.25-1.62-2.55-2.856-3.718-3.731-1.794 2.018-4.025 3.173-5.937 3.85l-1.037-1.248c5.073-1.448 7.45-4.861 8.048-7.77l-6.6.04v-1.368l8.553-.012c-.4 2.244-1.196 4.037-2.205 5.458 1.235.824 2.869 2.11 4.05 3.466l-1.155 1.315z" fill="#ff5a00"/></g></svg>