<svg width="266" height="42" xmlns="http://www.w3.org/2000/svg"><g fill="#E95506" fill-rule="evenodd"><path d="M153.916 2.292v36.521c.002 0 .01 1.592 1.59 1.592h4.354c1.588-.01 1.581-1.592 1.581-1.592V2.293c.007 0 0-1.593-1.581-1.593h-4.353c-1.589 0-1.589 1.592-1.591 1.592m75.263 36.521l.003-16.1c0-7.205-6.338-11.623-10.963-11.623-4.601 0-8.514 1.197-11.524 3.635-.27.22-1.02.45-1.02-.205l-.014-1.662s0-1.583-1.584-1.583h-3.754s-1.584 0-1.584 1.583l-.006 25.955c.006 1.592 1.59 1.592 1.59 1.592l3.761-.003c1.577-.007 1.577-1.589 1.568-1.589l.005-12.685c.004-3.504 2.368-9.493 10.149-9.493 5.557 0 6.445 3.825 6.445 6.078l.005 16.1c0 1.592 1.589 1.582 1.589 1.582l3.756.01s1.587 0 1.578-1.592m28.859-.89c.46-.363.935-.064.927.77 0 .12 0 1.712 1.589 1.712h3.756s1.577 0 1.577-1.592V2.293C265.887.7 264.31.71 264.31.71h-3.756s-1.59-.01-1.6 1.582l.005 11.534c-.01.835-.454 1.12-.913.77-10.221-7.833-25.757 0-25.729 11.596.025 12.973 15.348 19.96 25.72 11.732m-9.054-21.145c5.419 0 9.788 3.722 9.804 9.504.012 5.96-4.374 9.785-9.793 9.785-5.423 0-9.554-4.253-9.554-9.862-.007-5.548 4.489-9.427 9.543-9.427m-148.392.489c0 .007 6.18.016 6.18-5.647 0-5.66-6.18-5.671-6.18-5.671H86.54c-1.58 0-1.58 1.592-1.58 1.592s-.011 6.194 0 8.14c0 1.593 1.669 1.593 1.58 1.593l14.052-.007zm-15.64 6.85c-.003 3.69.007 12.08.007 14.684 0 1.59-1.589 1.582-1.589 1.582h-3.55s-1.591.021-1.603-1.582l.007-36.52C78.223.7 79.805.7 79.805.7h23.03c5.21 0 11.15 3.592 11.15 10.921 0 3.564-2.041 6.854-4.911 8.86-.231.154-.408.465-.297.55 1.964 1.548 1.988 2.813 2.68 5.469 1.246 4.81 1.394 8.996 3.288 13.027.133.277-.193.857-.624.857l-4.587.01c-1.506 0-2.33-.713-2.616-1.592-1.648-5.031-.513-9.91-3.941-14.684-.805-1.121-2.584-1.583-4.662-1.583H86.54c-.003 0-1.58 0-1.588 1.583zm48.538 11.875c-7.398 0-10.786-5.483-10.786-9.687 0-4.198 3.545-9.743 10.681-9.743 7.134 0 10.706 5.51 10.706 9.709 0 4.248-3.494 9.72-10.6 9.72zm0 5.435c12.655 0 17.956-8.208 17.946-15.166-.008-6.66-5.326-15.171-18.054-15.171-12.709-.01-18.022 8.487-18.022 15.18 0 7.083 5.368 15.157 18.13 15.157zm35.051-2.066c4.905 3.495 14.027 2.648 18.183-.987.504-.441 1.088-.079 1.25.438.41 1.277.986 1.582 2.26 1.592h2.598c1.573 0 1.583-1.592 1.573-1.592l.007-16.428c.003-8.932-8.328-11.304-14.717-11.304-7.142.01-11.811 2.72-14.089 8.238-.23.56.436 1.234 1.006 1.234l4.874.016c.834 0 1.67-.707 1.919-1.118 1.267-2.122 3.315-2.912 7.16-2.912 4.251 0 5.37.945 6.745 2.912.886 1.262-.31 2.579-.99 2.613-10.241.526-11.98.898-14.77 1.35-4.039.635-7.126 4.545-7.098 8.624 0 2.667 1.25 5.315 4.09 7.324zm4.652-10.283c3.58-1.895 12.423-1.71 13.24-1.601.414.055 1.01.353 1.003.934-.028 7.645-10.47 8.674-14.467 6.043-.836-.55-1.364-1.539-1.399-2.417-.029-1.299.417-2.328 1.623-2.96zM62.778 18.125H23.906c-5.764 0-9.818 4.43-9.818 9.634 0 5.192 4.297 9.742 9.818 9.742h47.536v2.883H23.858c-7.658 0-12.808-5.861-12.808-12.601 0-6.742 5.173-12.573 12.787-12.573h35.948v-3.935H11.05v29.11h-3.2V8.36h54.928v9.765z"/><path d="M20.916 32.749h50.526V29.84H23.906v-3.939h35.958c7.614 0 12.787-5.826 12.787-12.57C72.651 6.588 67.344.7 59.684.7H0v39.683h3.204V3.619h56.58c5.535 0 9.854 4.547 9.854 9.742 0 5.196-4.086 9.626-9.854 9.626H20.916v9.762z"/></g></svg>